<svg width="526" height="443" viewBox="0 0 526 443" fill="none" xmlns="http://www.w3.org/2000/svg">
<g clip-path="url(#clip0_111_264)">
<path d="M297.641 61.2015C304.077 63.9952 310.11 67.091 315.577 70.3898C334.694 81.9162 350.072 98.6976 368.857 110.259C386.596 121.175 408.259 123.829 428.557 125.653C463.939 128.834 537.735 159.339 524.41 215.878C519.563 236.454 502.468 250.428 493.715 269.06C484.405 288.88 485.382 313.601 470.559 330.783C464.037 338.338 455.035 343.328 445.793 347.108C384.288 372.255 315.218 371.086 250.001 368.314C198.526 366.126 115.849 377.69 70.6355 349.453C48.1879 335.434 59.8609 297.112 44.3281 276.529C31.2759 259.233 13.5119 247.873 4.78552 226.223C-10.0645 189.383 11.1028 141.441 48.1647 128.364C71.3245 120.192 95.8603 116.448 118.754 107.473C142.406 98.1978 151.52 84.3048 169.557 67.8612C202.166 38.1392 257.665 43.8435 297.641 61.2015Z" fill="#CCE9FF"/>
<path d="M354.604 354.322H176.068V242.64C176.068 240.529 177.747 238.819 179.817 238.819H350.855C352.926 238.819 354.604 240.529 354.604 242.64V354.322Z" fill="#D3D3D3"/>
<path d="M182.603 246.911H348.072V345.397H182.603V246.911Z" fill="#F2F2F2"/>
<path d="M147.673 387.567C146.032 389.713 149.168 396.125 154.086 396.125H380.402C385.317 396.125 388.413 389.713 386.531 387.567H147.673Z" fill="#D3D3D3"/>
<path d="M385.9 386.394C387.782 388.537 385.317 390.277 380.403 390.277H154.088C149.169 390.277 146.514 388.537 148.155 386.394L171.326 356.092C172.967 353.946 177.261 352.208 180.92 352.208H349.294C352.948 352.208 357.442 353.946 359.324 356.092C368.18 366.196 377.042 376.291 385.9 386.394Z" fill="#F2F2F2"/>
<g opacity="0.5">
<path d="M198.418 362.429H190.774C191.855 360.827 192.397 360.024 193.476 358.422H200.818L198.418 362.429ZM208.324 362.429H200.681C201.606 360.827 202.069 360.024 202.993 358.422H210.333L208.324 362.429ZM205.159 357.654H194L195.008 356.159H205.997L205.159 357.654ZM218.237 357.656L207.076 357.654L207.883 356.159H218.872C218.619 356.758 218.49 357.057 218.237 357.656ZM231.317 357.654H220.154L220.758 356.159H231.752L231.317 357.654ZM244.394 357.654H233.235L233.636 356.159H244.627C244.536 356.758 244.489 357.057 244.394 357.654ZM257.475 357.654H246.312L246.515 356.159H257.503L257.475 357.654ZM270.553 357.654H259.394V356.159H270.382C270.451 356.758 270.482 357.057 270.553 357.654ZM283.634 357.654H272.472L272.268 356.159H283.261C283.408 356.758 283.484 357.057 283.634 357.654ZM296.715 357.654H285.552L285.148 356.159H296.137C296.369 356.758 296.484 357.057 296.715 357.654ZM309.794 357.654H298.632C298.387 357.057 298.266 356.758 298.022 356.159H309.017L309.794 357.654ZM322.87 357.654H311.711C311.388 357.057 311.225 356.758 310.904 356.159H321.89C322.281 356.758 322.477 357.057 322.87 357.654ZM337.465 357.654H324.79L323.779 356.159H336.26C336.741 356.758 336.984 357.057 337.465 357.654ZM218.227 362.429H210.585C211.353 360.827 211.739 360.025 212.505 358.424L219.845 358.422C219.199 360.026 218.875 360.825 218.227 362.429ZM228.131 362.429H220.489C221.102 360.827 221.407 360.024 222.021 358.422L229.361 358.424L228.131 362.429ZM238.038 362.429H230.396C230.853 360.825 231.082 360.025 231.537 358.422H238.877C238.542 360.024 238.372 360.827 238.038 362.429ZM247.943 362.429H240.301C240.6 360.827 240.747 360.022 241.049 358.422H248.391C248.21 360.024 248.118 360.827 247.943 362.429ZM257.842 362.429H250.207L250.564 358.422H257.902C257.88 360.024 257.868 360.827 257.842 362.429ZM267.752 362.429H260.11L260.081 358.422H267.418C267.553 360.024 267.619 360.827 267.752 362.429ZM277.655 362.429H270.017L269.598 358.422H276.933C277.223 360.024 277.366 360.827 277.655 362.429ZM287.558 362.429H279.918C279.595 360.827 279.432 360.024 279.107 358.422H286.447C286.89 360.024 287.113 360.827 287.558 362.429ZM195.217 367.77H187.176L189.873 363.764H197.617L195.217 367.77ZM205.645 367.77H197.601C198.527 366.168 198.99 365.366 199.914 363.764H207.657C206.851 365.365 206.447 366.167 205.645 367.77ZM216.069 367.77H208.026C208.794 366.168 209.175 365.366 209.946 363.764H217.686C217.039 365.366 216.714 366.167 216.069 367.77ZM226.495 367.77H218.449C219.061 366.168 219.368 365.366 219.978 363.764H227.723C227.231 365.366 226.985 366.167 226.495 367.77ZM236.921 367.77H228.878C229.335 366.168 229.561 365.366 230.017 363.767C233.115 363.767 234.66 363.764 237.758 363.764C237.421 365.366 237.255 366.167 236.921 367.77ZM247.342 367.77H239.3L240.05 363.764H247.79C247.612 365.365 247.521 366.167 247.342 367.77ZM257.765 367.77H249.726L250.086 363.764H257.822L257.765 367.77ZM268.193 367.77H260.15L260.121 363.764H267.861C267.993 365.366 268.062 366.167 268.193 367.77ZM278.616 367.77H270.578C270.408 366.168 270.323 365.366 270.158 363.764H277.894L278.616 367.77ZM289.04 367.77H281C280.675 366.168 280.511 365.366 280.188 363.764H287.928L289.04 367.77ZM192.018 373.111H183.574C184.652 371.51 185.195 370.707 186.276 369.106L194.419 369.104C193.459 370.705 192.977 371.508 192.018 373.111ZM202.963 373.111H194.521L196.83 369.106H204.976C204.171 370.706 203.767 371.508 202.963 373.111ZM213.911 373.111H205.464L207.384 369.106H215.527L213.911 373.111ZM224.855 373.111H216.407L217.938 369.106H226.083L224.855 373.111ZM235.798 373.111H227.357C227.812 371.51 228.043 370.707 228.495 369.106H236.638C236.306 370.706 236.136 371.508 235.798 373.111ZM246.741 373.111H238.299C238.598 371.51 238.75 370.707 239.05 369.106H247.194L246.741 373.111ZM257.684 373.111H249.246L249.604 369.106H257.743C257.722 370.706 257.71 371.508 257.684 373.111ZM268.637 373.111H260.191C260.182 371.51 260.174 370.707 260.162 369.106H268.304C268.438 370.706 268.502 371.508 268.637 373.111ZM279.58 373.111H271.14C270.971 371.51 270.886 370.707 270.719 369.106H278.858C279.146 370.706 279.292 371.508 279.58 373.111ZM290.521 373.111H282.077C281.755 371.51 281.593 370.707 281.268 369.106H289.411L290.521 373.111ZM188.818 378.449H179.972C181.051 376.848 181.595 376.047 182.675 374.446H191.217C190.419 375.781 189.619 377.116 188.818 378.449ZM200.285 378.449H191.441L193.753 374.446H202.298C201.493 376.047 201.088 376.848 200.285 378.449ZM211.749 378.449H202.905C203.672 376.848 204.058 376.047 204.828 374.446H213.369C212.722 376.047 212.399 376.848 211.749 378.449ZM223.177 378.576H214.317C214.952 376.925 215.266 376.098 215.897 374.447H224.444C223.937 376.097 223.685 376.925 223.177 378.576ZM292.007 378.449H225.835C226.288 376.848 226.516 376.047 226.972 374.446H290.895L292.007 378.449ZM243.094 387.249H293.291L289.064 380.426H247.09L243.094 387.249ZM296.521 362.429H288.879C288.411 360.827 288.181 360.024 287.716 358.422H295.056C295.641 360.022 295.932 360.827 296.521 362.429ZM298.473 367.77H290.428C289.964 366.168 289.732 365.366 289.266 363.764H297.011C297.594 365.366 297.888 366.167 298.473 367.77ZM300.426 373.111H291.981C291.514 371.51 291.285 370.707 290.819 369.106H298.963C299.548 370.706 299.838 371.508 300.426 373.111ZM302.379 378.449H293.532L292.369 374.446H300.913L302.379 378.449ZM305.479 362.429H297.837C297.23 360.827 296.925 360.024 296.321 358.422H303.662C304.387 360.024 304.752 360.827 305.479 362.429ZM307.904 367.77H299.86C299.253 366.168 298.948 365.366 298.344 363.764H306.086C306.811 365.365 307.177 366.167 307.904 367.77ZM310.325 373.111H301.881L300.363 369.106H308.506C309.236 370.706 309.597 371.508 310.325 373.111ZM312.748 378.449H303.901C303.297 376.848 302.992 376.047 302.388 374.446H310.93C311.658 376.047 312.019 376.848 312.748 378.449ZM314.438 362.429H306.797L304.926 358.422H312.268C313.136 360.024 313.572 360.827 314.438 362.429ZM317.331 367.77H309.288L307.418 363.764H315.161C316.028 365.366 316.465 366.167 317.331 367.77ZM320.227 373.111H311.781C311.033 371.51 310.661 370.707 309.911 369.106H318.056L320.227 373.111ZM323.119 378.449H314.272C313.525 376.848 313.153 376.047 312.403 374.446H320.948L323.119 378.449ZM323.395 362.429H315.755L313.534 358.422H320.872C321.885 360.024 322.386 360.827 323.395 362.429ZM326.761 367.77H318.718L316.496 363.764H324.238C325.247 365.366 325.754 366.167 326.761 367.77ZM330.125 373.111H321.683C320.794 371.51 320.351 370.707 319.46 369.106H327.603C328.613 370.706 329.117 371.508 330.125 373.111ZM333.49 378.449H324.644C323.905 377.114 323.164 375.78 322.421 374.446H330.968C331.975 376.047 332.479 376.848 333.49 378.449ZM332.358 362.429H324.715C323.683 360.827 323.167 360.024 322.136 358.422H329.479C330.63 360.024 331.204 360.827 332.358 362.429ZM336.19 367.77H328.146C327.115 366.168 326.601 365.366 325.573 363.764H333.315C334.466 365.366 335.041 366.167 336.19 367.77ZM340.026 373.111H331.579C330.55 371.51 330.037 370.707 329.006 369.106H337.151C338.303 370.706 338.877 371.508 340.026 373.111ZM343.86 378.449H335.012L332.437 374.446H340.985L343.86 378.449ZM341.313 362.429H333.673C332.501 360.827 331.918 360.024 330.743 358.422H338.085C339.376 360.024 340.021 360.827 341.313 362.429ZM345.619 367.77H337.575C336.408 366.168 335.819 365.366 334.65 363.764H342.39L345.619 367.77ZM349.925 373.111H341.48C340.308 371.51 339.724 370.707 338.553 369.106H346.696C347.988 370.706 348.633 371.508 349.925 373.111ZM354.231 378.449H345.382L342.457 374.446H351.001C352.293 376.047 352.937 376.848 354.231 378.449Z" fill="#D3D3D3"/>
</g>
<path d="M307.707 345.37H228.925C229.487 343.083 230.003 341.256 230.455 339.985C230.69 339.332 231.012 338.715 231.415 338.15C232.811 336.172 235.201 334.489 238.28 333.066C241.956 331.366 246.608 330.03 251.708 328.97C257.127 327.859 263.038 327.058 268.793 326.478C269.183 326.443 269.568 326.402 269.957 326.369C276.358 325.771 282.508 325.443 287.471 325.284C294.321 325.047 298.939 325.097 298.939 325.097C298.939 325.097 299.31 325.687 299.959 326.865C301.479 329.66 304.518 335.785 307.707 345.37Z" fill="#0B4870"/>
<path d="M247.357 216.789C247.207 217.799 246.944 218.735 246.572 219.635L246.795 217.089C246.983 216.975 247.172 216.902 247.357 216.789Z" fill="#FFE3CA"/>
<path d="M289.089 213.008V213.042C289.012 213.008 288.937 212.969 288.901 212.969C288.977 212.97 289.012 213.008 289.089 213.008Z" fill="#EEBEA7"/>
<path d="M369.942 266.744C369.942 266.744 374.809 262.232 373.844 258.847C373.027 255.974 374.261 252.756 374.568 251.421C374.984 249.652 375.152 243.91 376.471 244.222C378.704 244.765 378.189 253.931 378.463 255.885C378.739 257.837 384.656 251.3 386.673 250.958C388.695 250.608 398.967 261.022 394.391 265.043C389.814 269.057 383.503 270.685 382.836 271.552C382.171 272.42 379.035 274.802 379.035 274.802L369.942 266.744Z" fill="#F1B99E"/>
<path d="M385.381 251.638C385.381 251.638 400.216 240.273 401.837 240.342C403.464 240.407 404.026 241.253 402.681 242.37C401.342 243.491 388.674 253.774 388.674 253.774C388.674 253.774 408.485 243.268 409.831 243.033C410.611 242.894 411.211 244.397 410.544 245.065C409.881 245.726 391.445 257.328 391.445 257.328C391.445 257.328 409.959 247.551 411.139 247.69C412.175 247.815 412.912 249.522 411.589 250.34C410.264 251.158 393.591 261.207 393.591 261.207C393.591 261.207 407.52 254.944 408.446 255.644C409.009 256.077 409.813 257.028 406.174 258.531C402.528 260.036 394.599 264.839 394.599 264.839L385.381 251.638Z" fill="#F1B99E"/>
<path d="M279.47 203.198V204.208C279.391 204.024 279.319 203.873 279.283 203.685C279.206 203.649 279.206 203.575 279.206 203.534C279.283 203.424 279.357 203.314 279.47 203.198Z" fill="#FFBE55"/>
<path d="M268.317 209.34C268.167 209.375 267.977 209.375 267.83 209.375V209.301C267.977 209.34 268.167 209.34 268.317 209.34ZM279.47 203.198V203.499C279.406 203.56 279.344 203.622 279.283 203.685C278.871 204.135 278.42 204.545 277.972 204.959C277.784 205.109 277.635 205.256 277.45 205.407C277.672 205.185 277.934 204.921 278.162 204.697C278.499 204.36 278.834 203.949 279.206 203.534C279.283 203.424 279.356 203.314 279.47 203.198Z" fill="#EEBEA7"/>
<path d="M288.04 190.285C285.982 194.853 283.473 198.971 280.627 202.228C280.256 202.676 279.841 203.124 279.469 203.5V203.199C279.355 203.314 279.282 203.425 279.205 203.535C278.833 203.949 278.498 204.361 278.161 204.697C277.933 204.923 277.671 205.186 277.449 205.408C277.37 205.447 277.299 205.522 277.224 205.596C277.11 205.708 276.999 205.821 276.884 205.858C276.589 206.116 276.277 206.353 275.949 206.568C275.539 206.868 275.165 207.129 274.755 207.354C274.657 207.421 274.557 207.483 274.455 207.543C274.078 207.765 273.707 207.953 273.373 208.101C273.036 208.282 272.684 208.433 272.321 208.552L272.285 208.59C271.986 208.665 271.76 208.777 271.497 208.852C271.42 208.89 271.35 208.927 271.272 208.927C271.013 209.001 270.75 209.075 270.486 209.115C270.413 209.115 270.376 209.151 270.301 209.151H270.186C270.001 209.191 269.778 209.227 269.591 209.265C269.403 209.301 269.178 209.301 268.992 209.301C268.807 209.34 268.615 209.34 268.465 209.34H268.429C268.394 209.375 268.356 209.375 268.318 209.34C268.168 209.34 267.978 209.34 267.831 209.301V209.375C267.608 209.375 267.382 209.34 267.122 209.301C266.858 209.265 266.559 209.227 266.295 209.191C266.145 209.151 265.999 209.151 265.808 209.115C265.661 209.075 265.509 209.075 265.36 209.001C264.575 208.814 263.829 208.514 263.041 208.101C262.795 207.981 262.557 207.844 262.329 207.693C261.095 206.982 259.896 205.971 258.659 204.696C258.214 204.25 257.801 203.724 257.352 203.198C255.443 200.802 253.537 197.623 251.776 193.58C251.058 191.964 250.384 190.328 249.754 188.675C250.688 190.509 249.059 173.399 249.434 174C244.346 164.267 249.418 172.277 251.219 167.451C262.48 172.204 284.371 180.403 284.371 172.091C284.371 172.091 284.857 177.145 285.421 182.385C285.869 186.69 286.357 191.148 286.583 192.831C286.582 192.83 287.177 191.894 288.04 190.285Z" fill="#F4C7B1"/>
<path d="M268.317 209.34C268.167 209.375 267.977 209.375 267.83 209.375V209.301C267.977 209.34 268.167 209.34 268.317 209.34ZM279.47 203.198V203.499C279.406 203.56 279.344 203.622 279.283 203.685C278.871 204.135 278.42 204.545 277.972 204.959C277.784 205.109 277.635 205.256 277.45 205.407C277.672 205.185 277.934 204.921 278.162 204.697C278.499 204.36 278.834 203.949 279.206 203.534C279.283 203.424 279.356 203.314 279.47 203.198Z" fill="#EEBEA7"/>
<path d="M249.752 188.675C246.756 182.76 241.929 171.457 242.791 160.749V160.71C241.446 151.84 252.485 135.855 269.328 136.678C286.167 135.855 297.21 151.84 295.861 160.71V160.749C296.382 167.225 294.811 173.887 292.866 179.468C294.101 179.427 295.296 179.577 296.495 179.989C303.196 182.199 306.338 190.921 303.495 199.419C300.689 207.953 292.94 213.043 286.242 210.835C283.134 209.824 280.776 207.392 279.468 204.208V203.499C279.84 203.124 280.256 202.675 280.626 202.227C283.472 198.97 285.981 194.852 288.039 190.284C287.176 191.894 286.652 193.872 286.652 193.872C286.426 192.19 285.866 186.689 285.418 182.384C284.853 177.144 284.368 172.09 284.368 172.09C284.368 180.403 262.477 172.203 251.215 167.45L249.752 188.675Z" fill="#FFBE55"/>
<path d="M279.47 203.198V204.208C279.47 204.921 279.434 205.782 279.47 206.755C278.383 208.102 277.299 209.227 276.176 210.086C275.799 210.386 275.426 210.649 275.054 210.91C274.771 211.123 274.47 211.311 274.154 211.471H274.119C272.397 212.443 270.674 212.931 268.991 212.968H268.128C268.017 212.968 267.907 212.968 267.83 212.931V209.299C267.977 209.338 268.167 209.338 268.317 209.338C268.355 209.373 268.393 209.373 268.428 209.338H268.464C268.654 209.373 268.805 209.373 268.991 209.373C269.216 209.373 269.477 209.338 269.701 209.299C269.962 209.263 270.264 209.226 270.527 209.189C270.674 209.149 270.823 209.149 271.013 209.113C271.164 209.073 271.312 209.073 271.462 208.999C272.248 208.812 272.995 208.512 273.778 208.1C274.006 207.99 274.27 207.841 274.491 207.691C275.313 207.242 276.099 206.64 276.885 205.855C277 205.818 277.112 205.705 277.225 205.593C277.299 205.52 277.371 205.444 277.45 205.405C277.672 205.183 277.934 204.919 278.162 204.695C278.499 204.358 278.834 203.946 279.206 203.532C279.283 203.424 279.356 203.314 279.47 203.198Z" fill="#A5735B"/>
<path d="M267.832 235.279V336.616L285.311 335.869L299.683 335.232L298.221 317.526L296.612 297.72C294.117 298.779 291.633 299.866 289.162 300.98C289.837 293.156 290.135 285.969 289.687 280.09C287.928 258.227 285.197 240.409 283.063 228.767V228.729C283.286 226.484 282.986 223.975 282.464 221.655C282.387 221.176 282.288 220.701 282.165 220.232C282.015 219.707 281.906 219.222 281.755 218.735L281.415 217.613C281.342 217.351 281.228 217.089 281.156 216.863C280.882 215.947 280.556 215.047 280.18 214.168H280.108C280.407 215.517 281.455 220.009 282.763 227.082V227.121C281.907 230.864 279.171 232.96 275.802 234.123C275.766 234.123 275.693 234.158 275.651 234.158C273.335 234.946 270.714 235.244 268.208 235.28C268.096 235.279 267.945 235.318 267.832 235.279Z" fill="#0E538C"/>
<path d="M307.763 266.804C308.662 268.186 309.932 270.732 311.206 273.615C311.021 276.797 310.796 278.704 310.796 278.704C310.796 278.704 309.411 282.335 307.576 288.028C307.087 289.448 302.376 314.605 301.852 316.254C301.739 316.553 301.662 316.889 301.553 317.189C299.832 318.048 300.216 316.549 297.219 317.751C296.325 318.124 295.349 318.498 294.338 318.945C294.189 319.024 294.003 319.097 293.737 319.208C293.439 319.321 293.14 319.434 292.84 319.583C290.85 320.44 288.867 321.313 286.892 322.204C287.563 314.38 290.136 285.969 289.686 280.091C287.928 258.228 285.198 240.41 283.064 228.768V228.73C282.949 228.169 282.879 227.646 282.765 227.121V227.082C281.455 220.009 280.407 215.518 280.107 214.168H289.801V214.245C292.494 214.056 305.207 212.267 313.892 220.539C309.1 218.48 302.75 220.344 300.62 221.656C299.757 222.15 298.963 222.753 298.257 223.452C297.172 224.465 296.284 225.671 295.639 227.009C289.427 239.849 305.142 262.833 307.763 266.804Z" fill="#2A94F4"/>
<path d="M308.47 345.371H284.383C284.634 342.3 284.954 339.117 285.309 335.871C285.67 332.387 286.1 328.845 286.51 325.284C286.647 324.055 286.789 322.834 286.924 321.608C286.924 321.608 286.932 321.608 286.941 321.599C289.867 320.529 293.713 315.556 297.93 313.89C298.029 313.856 298.122 313.815 298.223 313.78C299.425 313.368 300.621 316.7 301.849 316.254C302.639 324.619 305.459 335.534 308.47 345.371Z" fill="#2A94F4"/>
<path d="M267.832 212.933V235.28C267.945 235.319 268.096 235.28 268.21 235.28C270.715 235.244 273.336 234.946 275.652 234.158C275.696 234.158 275.767 234.123 275.803 234.123C279.171 232.96 281.907 230.864 282.764 227.121V227.082C281.456 220.009 280.41 215.518 280.109 214.168H279.584V213.458C279.584 213.009 279.545 212.597 279.545 212.184C279.509 210.836 279.509 209.564 279.472 208.328V206.757C278.388 208.104 277.301 209.229 276.179 210.088C275.833 210.398 275.458 210.674 275.059 210.912C274.775 211.124 274.475 211.311 274.16 211.473H274.124C272.287 212.522 270.491 212.97 268.696 212.97C268.395 212.97 268.096 212.97 267.832 212.933Z" fill="#F4C7B1"/>
<path d="M375.203 262.024L376.069 263.566L376.095 263.595L382.858 275.552L383.902 277.392C383.902 277.392 381.853 278.219 378.628 279.583C375.693 280.824 371.797 282.454 367.574 284.283C366.403 284.806 365.227 285.318 364.046 285.819C355.833 289.463 347.187 293.353 342.858 295.843C333.415 301.238 325.556 303.122 320.768 303.023C316.006 302.897 305.561 274.699 303.929 267.934C302.275 261.198 296.164 248.787 291.786 236.969C289.933 231.948 290.469 227.517 292.055 223.999C294.165 219.23 298.144 216.148 300.601 215.656C301.569 215.433 302.562 215.336 303.555 215.366C305.085 215.372 306.53 215.666 307.887 216.191C321.178 221.371 325.293 248.913 326.072 253.604C326.358 255.232 327.156 257.962 328.185 260.942C330.465 267.913 333.784 276.325 333.784 276.325C340.458 273.449 343.213 272.627 345.756 271.898C347.602 271.358 349.343 270.918 352.354 269.76C353.262 269.424 354.233 269.031 355.276 268.675C357.825 267.751 360.383 266.858 362.953 265.994C369.306 263.871 375.203 262.024 375.203 262.024Z" fill="#2A94F4"/>
<path d="M268.991 209.301V212.933C268.88 212.97 268.806 212.97 268.692 212.97H267.829C266.143 212.933 264.42 212.445 262.699 211.473H262.663C262.349 211.311 262.048 211.124 261.764 210.912C261.382 210.649 261.009 210.374 260.644 210.088C259.521 209.229 258.434 208.103 257.35 206.757C257.385 205.297 257.35 204.061 257.35 203.2C257.799 203.726 258.212 204.251 258.657 204.699C259.893 205.973 261.093 206.985 262.327 207.695C262.552 207.845 262.814 207.995 263.039 208.104C263.827 208.516 264.574 208.816 265.358 209.003C265.507 209.077 265.657 209.077 265.806 209.117C265.998 209.153 266.143 209.153 266.293 209.193C266.557 209.23 266.856 209.268 267.12 209.303C267.378 209.342 267.606 209.377 267.829 209.377C267.976 209.377 268.166 209.377 268.316 209.342C268.354 209.377 268.391 209.377 268.427 209.342H268.463C268.613 209.34 268.805 209.34 268.991 209.301Z" fill="#A5735B"/>
<path d="M268.991 235.279V336.616L251.512 335.869L237.141 335.232L238.601 317.526L240.209 297.72C242.53 298.697 245.151 299.855 247.66 300.98C246.983 293.156 246.689 285.969 247.136 280.09C248.894 258.227 251.624 240.409 253.757 228.767V228.729C253.536 226.484 253.836 223.975 254.358 221.655C254.43 221.164 254.545 220.682 254.659 220.232C254.809 219.707 254.916 219.222 255.067 218.735L255.407 217.613C255.48 217.351 255.594 217.089 255.668 216.863C255.943 215.948 256.269 215.048 256.642 214.168H256.714C256.416 215.517 255.366 220.009 254.058 227.082V227.121C254.916 230.864 257.652 232.96 261.022 234.123C261.058 234.123 261.132 234.158 261.172 234.158C263.488 234.946 266.111 235.244 268.615 235.28C268.726 235.279 268.88 235.318 268.991 235.279Z" fill="#0E538C"/>
<path d="M256.713 214.167C256.414 215.516 255.365 220.008 254.057 227.081V227.12C253.945 227.644 253.87 228.168 253.757 228.729V228.767C251.624 240.409 248.894 258.227 247.136 280.09C246.688 285.968 246.983 293.156 247.66 300.98C245.189 299.866 242.705 298.779 240.209 297.72C239.201 297.271 238.224 296.899 237.33 296.526C234.332 295.326 232.76 294.465 231.04 293.603C230.931 293.304 230.853 292.969 230.74 292.67C230.217 291.022 229.732 289.449 229.246 288.029C227.41 282.337 226.026 278.705 226.026 278.705C226.026 278.705 225.803 276.798 225.616 273.616C226.888 270.732 228.161 268.187 229.06 266.805C231.678 262.834 247.395 239.85 241.182 227.01C240.537 225.672 239.65 224.466 238.564 223.453C237.858 222.755 237.064 222.151 236.203 221.657C234.075 220.346 225.681 221.83 220.892 223.889C229.575 215.613 244.329 214.058 247.023 214.246V214.169H256.713V214.167ZM252.437 345.371H228.349C229.073 343.007 229.787 340.583 230.453 338.15C232.598 330.441 234.373 322.615 234.971 316.254C236.198 316.7 237.403 317.112 238.605 317.524C242.946 319.055 246.91 320.521 249.896 321.608C250.166 324.063 250.459 326.528 250.746 328.97C251.007 331.291 251.274 333.597 251.511 335.87C251.866 339.117 252.184 342.3 252.437 345.371Z" fill="#2A94F4"/>
<path d="M268.991 212.933V235.28C268.88 235.319 268.727 235.28 268.613 235.28C266.11 235.244 263.487 234.946 261.171 234.158C261.132 234.158 261.058 234.123 261.021 234.123C257.651 232.96 254.915 230.864 254.057 227.121V227.082C255.365 220.009 256.416 215.518 256.713 214.168H257.238V213.458C257.238 213.009 257.277 212.597 257.277 212.184C257.313 210.836 257.313 209.564 257.35 208.328V206.757C258.434 208.104 259.521 209.229 260.644 210.088C261.021 210.426 261.394 210.687 261.764 210.912C262.066 211.136 262.365 211.32 262.663 211.473H262.699C264.534 212.522 266.336 212.97 268.127 212.97C268.428 212.97 268.726 212.97 268.991 212.933Z" fill="#F4C7B1"/>
<path d="M279.319 312.022C279.057 313.669 277.972 314.904 277.972 314.904C277.972 314.904 278.607 317.074 277.149 318.497C277.149 318.497 277.635 320.555 275.727 321.903C275.727 321.903 276.176 323.925 274.677 324.787C274.677 324.787 271.42 325.2 270.227 324.976C265.388 323.874 260.56 322.726 255.743 321.53L258.924 308.165V308.129C260.309 307.193 261.617 306.33 262.03 306.069C263.041 305.468 266.485 305.657 270.036 306.779C273.483 307.866 277.338 309.4 278.421 309.999C278.984 310.299 279.542 310.413 279.319 312.022Z" fill="#EEA886"/>
<path d="M259.336 306.406L258.922 308.129V308.165L255.742 321.531L255.256 323.591C255.256 323.591 253.195 322.805 249.898 321.606C246.907 320.52 242.943 319.061 238.601 317.527C237.403 317.113 236.202 316.701 234.973 316.255C226.476 313.332 217.492 310.3 212.626 309.177C202.034 306.706 194.996 302.739 191.553 299.408C188.15 296.077 199.676 268.3 203.084 262.235C206.453 256.17 210.416 242.919 215.247 231.278C217.304 226.334 220.707 223.453 224.265 221.957C229.058 219.897 234.073 220.345 236.201 221.656C237.063 222.15 237.856 222.754 238.562 223.452C239.647 224.465 240.535 225.671 241.179 227.009C247.393 239.849 231.676 262.833 229.058 266.804C228.159 268.186 226.886 270.732 225.614 273.615C222.545 280.276 219.252 288.699 219.252 288.699C226.099 291.135 228.681 292.405 231.038 293.602C232.758 294.464 234.33 295.325 237.328 296.525C238.222 296.898 239.199 297.27 240.207 297.719C242.528 298.696 245.149 299.854 247.658 300.979C251.565 302.757 255.458 304.566 259.336 306.406Z" fill="#2A94F4"/>
<path d="M294.599 179.667L294.277 164.998C294.23 162.551 294.277 160.126 293.928 157.856C293.583 155.554 292.958 153.3 291.99 151.213C290.088 147.031 286.896 143.5 282.888 141.261C278.884 138.987 274.227 137.954 269.582 137.973C264.939 137.954 260.272 138.987 256.284 141.261C252.267 143.5 249.077 147.031 247.168 151.213C246.207 153.299 245.583 155.554 245.237 157.856C244.889 160.15 244.923 162.519 244.891 164.998L244.563 179.667H242.725L242.41 164.998C242.381 162.593 242.27 160.06 242.594 157.502C242.914 154.968 243.536 152.44 244.564 150.063C246.554 145.268 250.273 141.203 254.772 138.633C259.278 136.022 264.48 134.846 269.583 134.819C274.69 134.846 279.887 136.022 284.391 138.633C288.894 141.203 292.607 145.268 294.595 150.063C295.621 152.44 296.251 154.968 296.577 157.502C296.896 160.08 296.79 162.568 296.762 164.998L296.443 179.667H294.599Z" fill="#0E538C"/>
<path d="M244.193 187.631C240.893 187.631 240.061 185.264 240.061 182.341V172.857C240.061 169.937 240.893 167.565 244.193 167.565H244.982V187.631H244.193Z" fill="#0B4870"/>
<path d="M244.982 167.566H246.688V187.632H244.982V167.566Z" fill="#2A94F4"/>
<path d="M295.473 187.631C298.776 187.631 299.615 185.264 299.615 182.341V172.857C299.615 169.937 298.776 167.565 295.473 167.565H294.684V187.631H295.473Z" fill="#0B4870"/>
<path d="M292.978 167.566H294.684V187.632H292.978V167.566Z" fill="#2A94F4"/>
<path d="M270.806 205.916V204.076C278.418 204.076 292.916 193.255 292.916 187.631H294.751C294.751 194.75 278.715 205.916 270.806 205.916Z" fill="#CCE9FF"/>
<path d="M272.028 207.566H269.577C267.544 207.566 265.898 206.419 265.898 204.995C265.898 203.577 267.544 202.431 269.577 202.431H272.028C274.06 202.431 275.706 203.578 275.706 204.995C275.705 206.419 274.06 207.566 272.028 207.566Z" fill="#0B4870"/>
<path d="M205.164 106.747V121.282L205.077 141.013L204.96 164.845L204.886 182.426L187.376 164.777L182.033 164.758L111.177 164.427C99.2067 162.091 90.1732 151.554 90.1732 138.919V106.747C90.1732 93.4017 100.262 82.3793 113.22 80.9282L184.243 81.2555C196.166 83.6094 205.164 94.1267 205.164 106.747Z" fill="#2A94F4"/>
<path opacity="0.8" d="M183.075 107.445C183.076 107.946 182.977 108.443 182.786 108.906C182.595 109.369 182.314 109.79 181.96 110.145C181.606 110.499 181.186 110.781 180.723 110.973C180.26 111.165 179.764 111.264 179.263 111.265H113.949C113.448 111.265 112.952 111.166 112.488 110.974C112.025 110.782 111.604 110.5 111.25 110.146C110.896 109.791 110.614 109.37 110.423 108.907C110.231 108.443 110.133 107.946 110.133 107.445C110.133 106.944 110.232 106.447 110.423 105.984C110.615 105.521 110.896 105.1 111.251 104.746C111.605 104.391 112.026 104.11 112.489 103.919C112.952 103.727 113.448 103.628 113.949 103.628H179.263C181.367 103.628 183.075 105.336 183.075 107.445ZM183.075 121.659C183.075 122.671 182.673 123.641 181.959 124.357C181.244 125.073 180.275 125.477 179.263 125.48H113.949C112.937 125.478 111.967 125.074 111.252 124.358C110.536 123.642 110.134 122.671 110.133 121.659C110.133 121.157 110.231 120.661 110.423 120.197C110.615 119.734 110.896 119.313 111.25 118.958C111.605 118.604 112.025 118.322 112.489 118.13C112.952 117.938 113.448 117.839 113.949 117.839H179.263C179.764 117.84 180.26 117.939 180.723 118.131C181.186 118.323 181.606 118.605 181.96 118.959C182.314 119.314 182.595 119.735 182.786 120.198C182.977 120.661 183.076 121.158 183.075 121.659ZM163.122 135.872C163.122 137.966 161.407 139.681 159.299 139.681H113.945C112.936 139.68 111.968 139.278 111.255 138.564C110.542 137.849 110.141 136.881 110.141 135.872C110.141 134.816 110.557 133.867 111.251 133.174C111.603 132.817 112.023 132.533 112.485 132.34C112.948 132.146 113.444 132.046 113.945 132.046H159.299C160.313 132.047 161.285 132.45 162.002 133.168C162.719 133.885 163.121 134.857 163.122 135.872Z" fill="#CCE9FF"/>
</g>
<defs>
<clipPath id="clip0_111_264">
<rect width="526" height="443" fill="white"/>
</clipPath>
</defs>
</svg>
