<svg xmlns="http://www.w3.org/2000/svg" xmlns:xlink="http://www.w3.org/1999/xlink" version="1.1" x="0px" y="0px" viewBox="0 0 3000 2250" style="enable-background:new 0 0 3000 2250;" xml:space="preserve">

<g id="window">
	<g>
		<rect x="435.732" y="385.788" style="fill:#BFE8FF;" width="425.35" height="487.976"/>
		<rect x="435.732" y="913.664" style="fill:#BFE8FF;" width="425.35" height="488.761"/>
		<rect x="896.183" y="385.788" style="fill:#BFE8FF;" width="433.923" height="487.976"/>
		<rect x="896.183" y="913.664" style="fill:#BFE8FF;" width="433.923" height="488.761"/>
	</g>
</g>
<g id="shadow">
	<path style="fill:#2E5B99;" d="M2728.623,1904.438H235.658c-4.409,0-7.983-3.574-7.983-7.983s3.574-7.983,7.983-7.983h2492.965   c4.409,0,7.983,3.574,7.983,7.983S2733.032,1904.438,2728.623,1904.438z"/>
	<g>
		<g>
			<g>
				<path style="fill:#ED5A24;" d="M2744.741,1676.882c-2.522-19.955-8.959-38.586-18.442-55.033l5.225-3.012l10.321-5.942      l0.128-0.085c-10.824-18.838-25.143-35.227-42.088-48.308l-11.066,14.269c-15.334-11.832-32.931-20.75-51.977-25.815      l4.711-17.479c-20.214-5.542-41.877-7.232-63.944-4.443l2.272,17.98c-20.025,2.531-38.586,8.959-55.033,18.442l-9.039-15.673      c-18.839,10.822-35.218,25.209-48.308,42.087l14.27,11.067c-11.834,15.335-20.75,32.93-25.816,51.977l-17.479-4.711      c-5.541,20.213-7.233,41.877-4.444,63.944l17.981-2.272c2.531,20.024,8.958,38.586,18.441,55.033l-11.095,6.384l-4.509,2.646      l-0.068,0.009c10.822,18.837,25.209,35.218,42.086,48.308l11.068-14.27c15.335,11.833,32.998,20.741,52.043,25.807l-4.711,17.48      c20.214,5.541,41.811,7.24,63.878,4.451l-2.272-17.981c20.023-2.53,38.654-8.967,55.101-18.449l7.006,12.192l2.031,3.48      c18.839-10.822,35.15-25.201,48.24-42.078l-14.268-11.068c11.832-15.334,20.741-32.997,25.874-52.052l17.479,4.711      c5.475-20.205,7.173-41.801,4.384-63.868L2744.741,1676.882z M2608.421,1774.861c-43.929,5.552-83.976-25.508-89.528-69.438      c-5.543-43.861,25.518-83.907,69.448-89.458c43.861-5.543,83.906,25.516,89.449,69.378      C2683.341,1729.272,2652.282,1769.318,2608.421,1774.861z"/>
			</g>
			<g>
				<path style="fill:none;stroke:#CC9B47;stroke-width:3;stroke-miterlimit:10;" d="M2578.124,1345.022      c-6.171-12.692-14.646-23.622-24.653-32.415l2.793-3.178l5.52-6.273l0.066-0.085c-11.436-10.079-24.643-17.744-38.851-22.619      l-4.139,11.975c-12.855-4.408-26.557-6.369-40.354-5.445l-0.808-12.676c-14.681,0.871-29.457,4.629-43.492,11.453l5.561,11.436      c-12.737,6.193-23.622,14.646-32.415,24.652l-9.537-8.378c-10.08,11.435-17.723,24.686-22.619,38.85l11.975,4.139      c-4.409,12.856-6.37,26.557-5.446,40.354l-12.676,0.807c0.872,14.68,4.628,29.457,11.452,43.492l11.437-5.561      c6.193,12.736,14.645,23.623,24.652,32.415l-5.934,6.742l-2.4,2.774l-0.043,0.021c11.435,10.079,24.686,17.723,38.849,22.62      l4.14-11.976c12.856,4.408,26.6,6.349,40.397,5.424l0.807,12.676c14.68-0.872,29.415-4.608,43.45-11.432l-5.561-11.436      c12.735-6.193,23.666-14.667,32.458-24.673l7.402,6.523l2.134,1.855c10.08-11.435,17.68-24.665,22.576-38.828l-11.975-4.14      c4.408-12.855,6.349-26.599,5.467-40.418l12.676-0.807c-0.914-14.659-4.651-29.393-11.475-43.428L2578.124,1345.022z       M2509.612,1440.839c-27.941,13.585-61.549,1.968-75.134-25.973c-13.564-27.897-1.946-61.505,25.995-75.09      c27.897-13.564,61.504-1.947,75.069,25.95C2549.126,1393.667,2537.509,1427.275,2509.612,1440.839z"/>
			</g>
		</g>
		<g>
			<g>
				<path style="fill:#FFCA59;" d="M689.456,1261.253c16.639,17.165-7.695,38.314-7.495,65.864      c0.199,27.55,33.447,37.602,6.601,78.132c-16.535,24.963-38.227-1.018-49.103,34.859c-10.877,35.877,2.914,39.357-13.482,54.32      c-28.583,26.085-85.116-11.885-74.098-47.746c11.018-35.861,44.818-38.373,24.921-63.118s-27.562-35.555-3.29-53.943      c30.043-22.759,61.649-11.589,60.122-37.406C632.105,1266.398,667.448,1238.55,689.456,1261.253z"/>
				<path style="fill:#0E0E0E;" d="M589.86,1533.879l-5.717-0.185c4.384-135.35,75.275-241.277,75.99-242.331l4.732,3.212      C664.16,1295.617,594.19,1400.24,589.86,1533.879z"/>
			</g>
			<g>
				<path style="fill:#ED5A24;" d="M337.447,1200.821c-17.759,26.617,19.386,48.583,25.778,84.901      c6.393,36.318-35.863,43.226,9.271,90.1c27.799,28.871,36.363,14.272,40.43,71.123c3.581,50.052,46.76,8.624,70.634,40.896      c30.804,41.64,97.383-31.899,74.214-76.45c-23.169-44.551-57.934-38.456-37.717-75.84c20.217-37.384,6.301-69.428-30.097-87.774      c-45.05-22.706-67.314,14.678-71.54-19.68C414.194,1193.74,360.936,1165.615,337.447,1200.821z"/>
				<path style="fill:#0E0E0E;" d="M534.426,1535.685c-38.003-174.994-155.376-295.735-156.557-296.932l5.456-5.375      c1.196,1.215,120.113,123.545,158.583,300.681L534.426,1535.685z"/>
			</g>
			<g>
				<g>
					<path style="fill:#5896FA;" d="M555.251,1798.192L555.251,1798.192c-62.384,0-112.956-50.572-112.956-112.956v-153.989h225.912       v153.989C668.207,1747.62,617.634,1798.192,555.251,1798.192z"/>
					<rect x="429.775" y="1647.622" style="fill:#0E0E0E;" width="12.52" height="239.012"/>
					<rect x="668.207" y="1647.622" style="fill:#0E0E0E;" width="12.52" height="239.012"/>
					<rect x="572.401" y="1647.622" style="fill:#0E0E0E;" width="12.52" height="239.012"/>
				</g>
				<rect x="429.775" y="1798.192" style="fill:#0E0E0E;" width="239.012" height="12.52"/>
			</g>
		</g>
	</g>
</g>
<g id="folder">
	<g>
		<path style="fill:#FFFFFF;" d="M1500.75,766.28v-67.283c0-30.554-24.756-55.324-55.31-55.324H856.531    c-30.554,0-55.324,24.77-55.324,55.324v1189.351h1523.334V766.28H1500.75z"/>
		<path style="fill:#0F4599;" d="M1505.644,766.28v-67.283c0-30.554-24.756-55.324-55.31-55.324H861.425    c-30.554,0-55.324,24.77-55.324,55.324v1189.351h1523.334V766.28H1505.644z"/>
		<polygon style="fill:#BAE2FF;" points="857.128,812.772 857.128,1888.351 2268.273,1888.351 2268.273,807.486   "/>
		<polygon style="fill:#1480CC;" points="934.605,812.772 934.605,1888.351 2345.749,1888.351 2345.749,807.486   "/>
		<path style="fill:#FFFFFF;" d="M2402.636,766.289H1008.529c-28.617,0-49.686,19.364-53.8,46.138v1075.924h1521.534    l-0.003-1048.626C2476.606,801.081,2441.73,766.289,2402.636,766.289z"/>
		<g>
			<g>
				
					<rect x="1332.048" y="565.976" transform="matrix(1 -0.0028 0.0028 1 -2.5001 4.9471)" style="fill:#EBF3FF;" width="866.413" height="658.453"/>
				
					<rect x="1353.75" y="587.465" transform="matrix(1 -0.0028 0.0028 1 -2.4859 4.9459)" style="fill:#3397FF;" width="822.095" height="605.322"/>
				<polygon style="fill:#E3EEFF;" points="1423.894,1145.155 1952.198,1143.676 1663.339,866.558     "/>
				<polygon style="fill:#E3EEFF;" points="1664.118,1144.483 2108.01,1143.24 1867.143,914.209     "/>
				
					<ellipse transform="matrix(0.7071 -0.7071 0.7071 0.7071 -33.6524 1528.5848)" style="fill:#E3EEFF;" cx="1828.339" cy="804.914" rx="61.181" ry="61.181"/>
			</g>
		</g>
		<g>
			<g>
				
					<rect x="1507.371" y="486.932" transform="matrix(1 -0.0032 0.0032 1 -2.6698 6.1217)" style="fill:#EBF3FF;" width="803.234" height="698.527"/>
				
					<rect x="1529.708" y="509.729" transform="matrix(1 -0.0032 0.0032 1 -2.6684 6.157)" style="fill:#3397FF;" width="757.621" height="642.163"/>
			</g>
			<g>
				<rect x="1603.089" y="599.602" style="fill:#CCE5FF;" width="301.735" height="26.509"/>
				<rect x="1603.089" y="671.187" style="fill:#CCE5FF;" width="613.884" height="26.509"/>
				<rect x="1603.089" y="744.072" style="fill:#CCE5FF;" width="613.884" height="26.509"/>
			</g>
		</g>
		<path style="fill:#66B8FF;" d="M2409.349,766.289H1015.242c-28.617,0-49.686,19.364-53.8,46.138v1075.924h1521.534    l-0.003-1048.626C2483.319,801.081,2448.443,766.289,2409.349,766.289z"/>
		<rect x="801.207" y="1882.162" style="fill:#FFFFFF;" width="153.522" height="6.187"/>
		<polygon style="opacity:0.5;" points="801.207,1221.367 857.128,1257.854 934.021,1257.854 954.729,1272.383 954.729,1258.766     2476.263,1258.766 2476.263,1221.367   "/>
		<g>
			<g>
				<rect x="779.593" y="1042.853" style="fill:#61B3F2;" width="1727.667" height="195.206"/>
				<rect x="935.12" y="1042.853" style="fill:#2E97E6;" width="1572.141" height="195.206"/>
			</g>
		</g>
		<g>
			<polygon style="fill:#0E0E0E;" points="1369.745,1042.853 1369.745,1237.991 1506.347,1237.991 1410.568,1042.853    "/>
			<g>
				<g>
					<path style="fill:#2475B3;" d="M1373.917,1042.919h-36.275v195.072h36.275c11.89,0,22.651-10.718,30.389-28.721       c7.931-17.584,12.651-42.025,12.651-69.029C1416.957,1086.65,1397.702,1042.919,1373.917,1042.919z M1370.516,1140.241       c0-16.286,5.286-29.579,12.084-31.725c6.793,2.146,12.079,15.439,12.079,31.725c0,16.726-5.286,30.009-12.079,32.154       C1375.802,1170.249,1370.516,1156.967,1370.516,1140.241z"/>
					<g>
						<path style="fill:#3F9EE6;" d="M1353.443,1042.919h-15.802v195.072h15.802c12.446,0,23.7-10.718,31.801-28.721        c8.294-17.584,13.232-42.025,13.232-69.029C1398.476,1086.65,1378.33,1042.919,1353.443,1042.919z M1363.715,1172.395        c-7.112-2.146-12.643-15.428-12.643-32.154c0-16.286,5.531-29.579,12.643-31.725c7.108,2.146,17.377,15.439,17.377,31.725        C1381.093,1156.967,1370.823,1170.249,1363.715,1172.395z"/>
					</g>
				</g>
				<g>
					<path style="fill:#2475B3;" d="M1356.537,1042.919h-36.275v195.072h36.275c11.89,0,22.651-10.718,30.389-28.721       c7.931-17.584,12.651-42.025,12.651-69.029C1399.577,1086.65,1380.322,1042.919,1356.537,1042.919z M1353.136,1140.241       c0-16.286,5.286-29.579,12.084-31.725c6.793,2.146,12.079,15.439,12.079,31.725c0,16.726-5.286,30.009-12.079,32.154       C1358.422,1170.249,1353.136,1156.967,1353.136,1140.241z"/>
					<g>
						<path style="fill:#61B3F2;" d="M1336.064,1042.919h-15.802v195.072h15.802c12.446,0,23.7-10.718,31.801-28.721        c8.294-17.584,13.232-42.025,13.232-69.029C1381.096,1086.65,1360.95,1042.919,1336.064,1042.919z M1351.075,1172.395        c-7.112-2.146-12.643-15.428-12.643-32.154c0-16.286,5.531-29.579,12.643-31.725c7.108,2.146,12.638,15.439,12.638,31.725        C1363.713,1156.967,1358.182,1170.249,1351.075,1172.395z"/>
					</g>
					<path style="fill:#1A5380;" d="M1356.71,1239.264c-0.12,0-0.195-0.002-0.224-0.004c-0.701-0.028-1.246-0.619-1.217-1.32       c0.028-0.7,0.626-1.246,1.321-1.217c0.078-0.006,8.912,0.196,18.187-8.769c10.208-9.866,22.377-32.281,22.377-83.035       c0-92.634-40.424-100.678-40.832-100.748c-0.691-0.119-1.155-0.776-1.036-1.467c0.119-0.691,0.779-1.151,1.467-1.036       c0.448,0.077,11.083,2.05,21.735,15.938c9.674,12.613,21.206,37.999,21.206,87.313c0,51.766-12.646,74.774-23.254,84.96       C1367.096,1238.851,1358.253,1239.264,1356.71,1239.264z"/>
				</g>
			</g>
			<g>
				<path style="fill:#CCCCCC;" d="M1351.09,1169.781c-1.717,0.429-2.994,0.858-4.71,1.288c0.429,0.429,0.429,0.429,0,0.429      c-69.029,20.578-120.045,84.028-120.045,159.913v162.961h-54.878v-162.961c0-105.465,74.168-193.784,173.206-216.079      c2.146-0.858,4.291-1.287,6.427-1.706C1366.958,1110.193,1368.245,1167.216,1351.09,1169.781z"/>
				<path style="fill:#CCCCCC;" d="M1416.047,1110.705v54.575c70.735,9.106,127.853,61.587,143.041,130.166      c0.44,1.706,0.858,2.994,0.858,4.281c0.858,3.862,1.287,7.285,1.717,11.147c0.858,6.856,1.287,13.722,1.287,20.578v162.961      h54.449v-162.961C1617.399,1216.201,1528.828,1121.769,1416.047,1110.705z"/>
				<path style="fill:#808080;" d="M1352.356,1153.683c-128.68,22.567-145.249,162.666-145.249,162.666v178.065h19.301v-162.961      c0-77.487,53.13-142.256,124.64-161.557c5.467-1.773,8.872-17.774,8.872-17.774S1356.537,1152.881,1352.356,1153.683z"/>
				<path style="fill:#808080;" d="M1416.047,1153.683v11.597c70.735,9.106,127.853,61.587,143.041,130.166      C1556.012,1255.417,1522.82,1167.939,1416.047,1153.683z"/>
				<path style="fill:#666666;" d="M1351.09,1169.781c-1.717,0.429-2.994,0.858-4.71,1.288c1.287-3.433,8.26-11.222,9.119-27.509      c0.858-16.726-4.819-28.033-10.835-28.228c2.146-0.858,4.291-1.287,6.427-1.706      C1366.958,1110.193,1368.245,1167.216,1351.09,1169.781z"/>
				<path style="fill:#FFFFFF;" d="M1172.064,1504.5c-1.381,0-2.5-1.119-2.5-2.5v-165.563c-0.069-1.631-0.906-24.951,6.254-56.345      c6.715-29.44,22.065-71.628,57.063-105.424c0.994-0.958,2.576-0.93,3.535,0.063c0.959,0.993,0.932,2.575-0.062,3.535      c-34.069,32.898-49.055,74.054-55.626,102.786c-7.145,31.238-6.177,54.98-6.166,55.217l0.002,0.113V1502      C1174.564,1503.381,1173.445,1504.5,1172.064,1504.5z"/>
			</g>
			<g>
				<rect x="1124.366" y="1449.943" style="fill:#F7AF0C;" width="540.627" height="441.926"/>
				<g>
					<path style="fill:#CC840A;" d="M1324.81,1625.761c0,27.261,16.297,51.067,39.439,61.454v113.82       c0,13.419,9.441,24.672,21.876,27.272h1.277c1.287,0.433,3.004,0.433,4.291,0.433c15.01,0,27.434-12.553,27.434-27.705v-113.82       c23.153-10.82,39.45-34.193,39.45-61.454c0-37.225-30.019-67.086-66.884-67.086c-1.717,0-3.433,0-5.15,0.433       C1351.825,1561.708,1324.81,1590.269,1324.81,1625.761z"/>
					<path style="fill:#803D00;" d="M1324.81,1625.761c0,27.261,16.297,51.067,39.439,61.454v113.82       c0,13.419,9.441,24.672,21.876,27.272h1.277c12.435-2.599,21.865-13.853,21.865-27.272v-113.82       c23.153-10.82,39.45-34.193,39.45-61.454c0-35.492-27.444-64.497-62.173-66.652       C1351.825,1561.708,1324.81,1590.269,1324.81,1625.761z"/>
				</g>
				<path style="fill:#E6950B;" d="M1493.439,1891.869h171.554v-441.926h-47.594      C1617.399,1449.943,1630.04,1776.018,1493.439,1891.869z"/>
				<path style="fill:#F7E4AD;" d="M1240.44,1891.869c-40.972-87.672-33.333-323.372-33.333-441.926h-54.449v441.926H1240.44z"/>
			</g>
		</g>
	</g>
</g>
<g id="girl">
	<g>
		
		
		<g>
			
				<rect x="1701.408" y="890.954" transform="matrix(0.9837 0.1796 -0.1796 0.9837 198.9654 -349.2045)" style="fill:#0C3980;" width="652.803" height="66.285"/>
			
				<rect x="1707.193" y="890.207" transform="matrix(0.9837 0.1796 -0.1796 0.9837 193.3686 -350.7585)" style="fill:#FFFFFF;" width="652.803" height="4.414"/>
			<path style="fill:#0C3980;" d="M2488.802,831.326c-94.405-17.309-185.192,45.474-202.501,140.033     c-17.148,94.405,45.628,185.192,140.033,202.501c94.405,17.152,185.192-45.628,202.501-140.033     C2646.145,939.422,2583.208,848.635,2488.802,831.326z M2567.627,1017.148c-0.154,1.729-0.469,3.619-0.783,5.347     c-10.856,60.263-68.918,100.386-129.177,89.373c-48.148-8.812-83.55-47.518-90.003-93.622     c-1.729-11.486-1.571-23.601,0.63-35.713c11.017-60.263,68.918-100.386,129.177-89.369     c58.377,10.698,97.713,65.138,90.318,123.196C2567.788,1016.676,2567.788,1016.833,2567.627,1017.148z"/>
			
				<rect x="1741.924" y="868.343" transform="matrix(0.9837 0.1796 -0.1796 0.9837 196.3443 -303.2165)" style="fill:#0C3980;" width="61.263" height="128.552"/>
			
				<rect x="1859.498" y="899.763" transform="matrix(0.9837 0.1796 -0.1796 0.9837 201.1043 -324.0776)" style="fill:#0C3980;" width="61.263" height="97.418"/>
			<path style="fill:#0A3366;" d="M2567.788,1016.361c7.395-58.058-31.941-112.498-90.318-123.196     c-60.26-11.017-118.16,29.106-129.177,89.369c-2.201,12.112-2.359,24.227-0.63,35.713c-1.886-7.867-2.831-16.045-2.831-24.542     c0-62.149,50.349-112.656,112.656-112.656c62.153,0,112.659,50.506,112.659,112.656     C2570.147,1001.414,2569.36,1009.123,2567.788,1016.361z"/>
			<path style="fill:#FFFFFF;" d="M2463.907,827.875c-130.094-5.286-172.934,112.527-173.398,113.854l6.236,0.995     c1.818-5.188,41.703-114.443,167.162-108.638V827.875z"/>
		</g>
		
		
		
			
		
	</g>
</g>
</svg>