<svg xmlns="http://www.w3.org/2000/svg" xmlns:xlink="http://www.w3.org/1999/xlink" version="1.1" x="0px" y="0px" viewBox="0 0 500 500" style="0 0 500 500;;background-color: transparent;" xml:space="preserve">
<g id="OBJECT">
	<ellipse style="opacity:0.5;fill:#F5F5F5;" cx="250.393" cy="433.504" rx="221.318" ry="30.693"/>
	<g>
		<path style="fill:#F5F5F5;" d="M210.572,378.395c0.043-3.152-0.082-7.52-0.834-12.65c-0.634-4.321-2.658-18.124-9.936-28.555    c-11-15.765-23.47-8.736-36.252-25.035c-7.315-9.328-5.258-14.216-13.624-21.683c-7.39-6.596-15.323-9.025-23.776-10.415    c-21.39-3.518-56.287-0.218-56.287-0.218c2.946,33.824,14.316,47.809,24.128,54.335c13.77,9.158,24.362,3.548,36.635,14.51    c15.977,14.27,5.489,30.439,20.39,45.286c0,0,6.523,6.5,57.146,16.121l0,0L210.572,378.395z"/>
		
			<path style="fill:none;stroke:#D6D6D6;stroke-width:0.4657;stroke-linecap:round;stroke-linejoin:round;stroke-miterlimit:10;" d="    M208.162,410.091c0,0-39.107-66.558-54.004-79.602c-14.897-13.044-84.295-50.65-84.295-50.65"/>
		
			<line style="fill:none;stroke:#D6D6D6;stroke-width:0.4657;stroke-linecap:round;stroke-linejoin:round;stroke-miterlimit:10;" x1="120.082" y1="308.223" x2="76.399" y2="310.668"/>
		
			<line style="fill:none;stroke:#D6D6D6;stroke-width:0.4657;stroke-linecap:round;stroke-linejoin:round;stroke-miterlimit:10;" x1="129.106" y1="313.629" x2="132.005" y2="281.233"/>
		
			<line style="fill:none;stroke:#D6D6D6;stroke-width:0.4657;stroke-linecap:round;stroke-linejoin:round;stroke-miterlimit:10;" x1="148.968" y1="326.464" x2="111.16" y2="340.433"/>
		
			<line style="fill:none;stroke:#D6D6D6;stroke-width:0.4657;stroke-linecap:round;stroke-linejoin:round;stroke-miterlimit:10;" x1="164.964" y1="343.067" x2="169.829" y2="318.506"/>
		
			<line style="fill:none;stroke:#D6D6D6;stroke-width:0.4657;stroke-linecap:round;stroke-linejoin:round;stroke-miterlimit:10;" x1="177.165" y1="360.469" x2="140.539" y2="367.159"/>
		
			<line style="fill:none;stroke:#D6D6D6;stroke-width:0.4657;stroke-linecap:round;stroke-linejoin:round;stroke-miterlimit:10;" x1="186.719" y1="375.139" x2="200.503" y2="338.231"/>
		
			<line style="fill:none;stroke:#D6D6D6;stroke-width:0.4657;stroke-linecap:round;stroke-linejoin:round;stroke-miterlimit:10;" x1="195.413" y1="389.008" x2="153.049" y2="395.253"/>
	</g>
	<g>
		<path style="fill:#F5F5F5;" d="M187.32,383.607c-1.165-2.929-2.95-6.918-5.606-11.371c-2.237-3.751-9.383-15.732-20.096-22.589    c-16.191-10.364-25.027,0.898-43.068-9.279c-10.325-5.824-10.292-11.127-20.877-14.83c-9.35-3.271-17.61-2.483-25.951-0.537    c-21.111,4.924-52.097,21.311-52.097,21.311c15.65,30.13,31.502,38.708,43.063,40.988c16.225,3.199,23.869-6.032,39.4-0.593    c20.218,7.08,16.706,26.03,36.15,34.055c0,0,8.512,3.513,58.969-6.945l0,0L187.32,383.607z"/>
		
			<path style="fill:none;stroke:#D6D6D6;stroke-width:0.4657;stroke-linecap:round;stroke-linejoin:round;stroke-miterlimit:10;" d="    M197.207,413.817c0,0-61.577-46.558-80.328-52.918c-18.752-6.361-97.254-14.587-97.254-14.587"/>
		
			<line style="fill:none;stroke:#D6D6D6;stroke-width:0.4657;stroke-linecap:round;stroke-linejoin:round;stroke-miterlimit:10;" x1="76.88" y1="353.348" x2="37.447" y2="372.303"/>
		
			<line style="fill:none;stroke:#D6D6D6;stroke-width:0.4657;stroke-linecap:round;stroke-linejoin:round;stroke-miterlimit:10;" x1="87.285" y1="354.895" x2="77.582" y2="323.85"/>
		
			<line style="fill:none;stroke:#D6D6D6;stroke-width:0.4657;stroke-linecap:round;stroke-linejoin:round;stroke-miterlimit:10;" x1="110.545" y1="359.164" x2="80.946" y2="386.523"/>
		
			<line style="fill:none;stroke:#D6D6D6;stroke-width:0.4657;stroke-linecap:round;stroke-linejoin:round;stroke-miterlimit:10;" x1="131.672" y1="368.393" x2="126.78" y2="343.837"/>
		
			<line style="fill:none;stroke:#D6D6D6;stroke-width:0.4657;stroke-linecap:round;stroke-linejoin:round;stroke-miterlimit:10;" x1="149.598" y1="379.811" x2="118.309" y2="399.991"/>
		
			<line style="fill:none;stroke:#D6D6D6;stroke-width:0.4657;stroke-linecap:round;stroke-linejoin:round;stroke-miterlimit:10;" x1="164.033" y1="389.715" x2="162.664" y2="350.341"/>
		
			<line style="fill:none;stroke:#D6D6D6;stroke-width:0.4657;stroke-linecap:round;stroke-linejoin:round;stroke-miterlimit:10;" x1="177.368" y1="399.208" x2="140.607" y2="421.171"/>
	</g>
	<polygon style="fill: #9f3ed7;" points="329.8,414.324 196.463,414.324 209.304,326.153 316.959,326.153  "/>
	<path style="fill: #9f3ed7;" d="M428.915,341.698H97.348c-8.424,0-15.253-6.829-15.253-15.253V117.563   c0-8.424,6.829-15.253,15.253-15.253h331.567c8.424,0,15.253,6.829,15.253,15.253v208.882   C444.168,334.869,437.339,341.698,428.915,341.698z"/>
	<path style="fill: #bf9cd3;" d="M420.129,316.583H106.134c-8.424,0-15.253-6.829-15.253-15.253V124.77   c0-8.424,6.829-15.253,15.253-15.253h313.996c8.424,0,15.253,6.829,15.253,15.253v176.56   C435.383,309.754,428.554,316.583,420.129,316.583z"/>
	<path style="fill: #9f3ed7;" d="M358.061,420.744h-189.86v-9.172c0-7.092,5.749-12.841,12.841-12.841h164.178   c7.092,0,12.841,5.749,12.841,12.841V420.744z"/>
	
		<line style="fill:none;stroke:#262626;stroke-linecap:round;stroke-linejoin:round;stroke-miterlimit:10;" x1="102.113" y1="316.583" x2="417.782" y2="316.583"/>
	<path style="fill:none;stroke:#262626;stroke-linecap:round;stroke-linejoin:round;stroke-miterlimit:10;" d="M176.559,416.158   v-4.815c0-2.913,2.361-5.274,5.274-5.274h142.395"/>
	
		<line style="fill:none;stroke:#262626;stroke-linecap:round;stroke-linejoin:round;stroke-miterlimit:10;" x1="309.094" y1="348.744" x2="314.138" y2="387.267"/>
	<circle style="fill:#FFFFFF;" cx="259.947" cy="329.92" r="7.387"/>
	<path style="fill:none;stroke:#FFFFFF;stroke-linecap:round;stroke-linejoin:round;stroke-miterlimit:10;" d="M365.043,123.572   h39.21c7.472,0,13.529,6.057,13.529,13.529v81.471"/>
	<g>
		<path style="fill:#3897E9;" d="M394.966,149.38c2.265-5.448,4.504-9.663,6.718-12.642c2.213-2.979,5.095-5.355,8.649-7.127    c2.077-1.086,4.24-1.865,6.496-2.336c2.252-0.47,4.396-1.069,6.432-1.794c2.032-0.724,3.903-1.708,5.611-2.948    c1.707-1.24,3.117-3.198,4.231-5.877c1.88-4.524,1.949-8.207,0.204-11.044c-1.745-2.837-4.327-4.967-7.743-6.387    c-4.897-2.035-8.834-2.073-11.812-0.117c-2.981,1.957-5.662,5.148-8.042,9.574l-17.87-7.428c1.881-4.524,4.327-8.328,7.341-11.408    c3.012-3.079,6.419-5.346,10.219-6.8c3.798-1.452,7.902-2.076,12.312-1.868c4.406,0.207,8.92,1.271,13.539,3.191    c9.974,4.146,17.001,9.451,21.086,15.914c4.081,6.464,4.224,14.266,0.423,23.409c-1.229,2.957-2.605,5.416-4.125,7.384    c-1.523,1.966-3.259,3.6-5.207,4.903c-1.95,1.301-4.129,2.373-6.535,3.214c-2.409,0.841-5.065,1.631-7.972,2.372    c-2.686,0.726-4.929,1.5-6.732,2.319c-1.804,0.822-3.338,1.837-4.596,3.045c-1.262,1.209-2.321,2.585-3.176,4.122    c-0.858,1.54-1.708,3.327-2.551,5.357L394.966,149.38z M383.298,175.887l7.544-18.148l18.701,7.774l-7.544,18.148L383.298,175.887    z"/>
	</g>
	<path style="fill:#F5F5F5;" d="M285.994,176.616v-14.82c0-4.861-3.941-8.802-8.802-8.802h-86.028c-4.861,0-8.802,3.941-8.802,8.802   v14.82v98.732c0,4.861,3.941,8.802,8.802,8.802h137.567c4.861,0,8.802-3.941,8.802-8.802v-89.93c0-4.861-3.941-8.802-8.802-8.802   H285.994z"/>
	<polygon style="fill:#D6D6D6;" points="277.279,197.316 259.947,214.648 242.616,197.317 232.157,207.775 249.488,225.107    232.157,242.439 242.616,252.897 259.947,235.566 277.279,252.897 287.738,242.439 270.406,225.107 287.738,207.775  "/>
	
	<g>
		<path style="fill:#F5F5F5;" d="M322.939,254.845l9.275-4.958l13.758,2.522l6.879-7.338l16.28,4.357l9.058-12.382l16.174,9.914    l-5.503-34.963l-21.342-14.943l-49.052,7.72c-1.837,0.289-3.091,2.012-2.802,3.849L322.939,254.845z"/>
		<path style="fill:#D6D6D6;" d="M372.503,214.571l16.357-2.574l-21.342-14.943l2.469,15.685    C370.175,213.94,371.302,214.76,372.503,214.571z"/>
		<path style="fill:none;stroke:#262626;stroke-width:0.274;stroke-linecap:round;stroke-linejoin:round;stroke-miterlimit:10;" d="    M367.518,197.053l2.469,15.685c0.189,1.201,1.316,2.021,2.517,1.832l16.357-2.574"/>
		<path style="fill:#F5F5F5;" d="M329.551,300.752c0.289,1.837,2.012,3.091,3.849,2.802l64.257-10.113    c1.837-0.289,3.091-2.012,2.802-3.849l-6.096-38.734l-16.174-9.914l-9.058,12.382l-16.28-4.357l-6.879,7.338l-13.758-2.522    l-9.275,4.958L329.551,300.752z"/>
		<path style="fill:none;stroke:#262626;stroke-width:0.274;stroke-linecap:round;stroke-linejoin:round;stroke-miterlimit:10;" d="    M322.952,254.845l9.275-4.958l13.758,2.522l6.879-7.338l16.28,4.357l9.058-12.382l16.174,9.914l-5.503-34.963l-21.342-14.943    l-49.052,7.72c-1.837,0.289-3.091,2.012-2.802,3.849L322.952,254.845z"/>
		<path style="fill:none;stroke:#262626;stroke-width:0.274;stroke-linecap:round;stroke-linejoin:round;stroke-miterlimit:10;" d="    M329.564,300.752c0.289,1.837,2.012,3.091,3.849,2.802l64.257-10.113c1.837-0.289,3.091-2.012,2.802-3.849l-6.096-38.734    l-16.174-9.914l-9.058,12.382l-16.28-4.357l-6.879,7.338l-13.758-2.522l-9.275,4.958L329.564,300.752z"/>
	</g>
	<polygon style="fill:#FF7129;" points="74.361,146.097 72.739,147.645 58.391,134.69 62.521,130.751  "/>
	<polygon style="fill:#FF7129;" points="77.906,143.441 75.701,143.849 70.78,125.155 76.392,124.118  "/>
	<polygon style="fill:#FF7129;" points="70.26,149.623 70.076,151.858 50.745,151.712 51.214,146.024  "/>
	<g>
		<path style="fill:#FF7129;" d="M301.209,433.06L301.209,433.06c-4.85-4.767-4.918-12.563-0.151-17.413l56.693-57.687    l17.564,17.262l-56.693,57.686C313.855,437.759,306.059,437.827,301.209,433.06z"/>
		
			<ellipse transform="matrix(1 -0.0023 0.0023 1 -0.7479 0.913)" style="opacity:0.2;fill:#DCF0FF;" cx="402.241" cy="330.258" rx="49.79" ry="49.79"/>
		<path style="opacity:0.5;fill:#FFFFFF;" d="M355.646,347.806c1.679,4.467,4.019,8.739,7.024,12.664l89.35-30.905    c-0.067-4.831-0.836-9.651-2.299-14.299L355.646,347.806z"/>
		<path style="opacity:0.5;fill:#FFFFFF;" d="M352.569,333.549c0.186,2.825,0.613,5.635,1.279,8.4l93.673-32.4    c-1.168-2.555-2.559-5.03-4.181-7.396L352.569,333.549z"/>
		<path style="fill:#FF7129;" d="M442.518,289.275c-22.634-22.245-59.016-21.929-81.261,0.706    c-22.245,22.634-21.929,59.016,0.706,81.261c22.634,22.245,59.016,21.929,81.261-0.706    C465.469,347.901,465.153,311.519,442.518,289.275z M369.071,364.009c-18.64-18.319-18.9-48.28-0.581-66.921    c18.319-18.64,48.28-18.9,66.92-0.581c18.64,18.319,18.9,48.28,0.581,66.921C417.673,382.068,387.711,382.328,369.071,364.009z"/>
		
			<line style="fill:none;stroke:#FFFFFF;stroke-linecap:round;stroke-linejoin:round;stroke-miterlimit:10;" x1="361.731" y1="380.529" x2="316.903" y2="426.142"/>
		<path style="fill:none;stroke:#FFFFFF;stroke-linecap:round;stroke-linejoin:round;stroke-miterlimit:10;" d="M406.361,276.925    c-14.124-1.425-28.767,3.45-39.219,13.056c-10.452,9.607-16.541,23.788-16.309,37.982"/>
	</g>
</g>
</svg>