<svg xmlns="http://www.w3.org/2000/svg" xmlns:xlink="http://www.w3.org/1999/xlink" version="1.1" x="0px" y="0px" viewBox="0 0 500 500" style="enable-background:new 0 0 500 500;" xml:space="preserve">
<g id="OBJECTS">
	<g>
		<path style="fill-rule:evenodd;clip-rule:evenodd;fill:#DFE5F3;" d="M112.139,128.249c41.459,12.783,75.475,24.855,36.675,39.414    c-31.905,11.971-115.996,35.247-116.437,73.88c-0.16,14.003,11.421,27.299,41.05,36.302c16.671,5.064,32.62,7.108,44.801,7.378    c6.723,4.673,35.443,11.246,1.526,19.813c-73.51,18.563-95.066,80.76-4.463,89.794c-10.871,5.601-17.004,11.787-17.004,18.179    c0,21.582,69.962,37.297,156.265,35.096c86.303-2.199,156.265-21.482,156.265-43.064c0-10.27-15.845-19.208-41.743-25.522    c11.271-2.277,22.368-4.786,33.4-7.528c76.517-19.025,62.139-58.128,37.914-68.768c-36.048-15.832-105.13-0.563-58.261-20.095    c36.786-15.331,54.712-35.023,45.444-52.176c13.209-10.174,43.859-33.463,22.722-49.256    c-25.757-19.244-68.048-8.634-97.924-12.403c-15.206-1.919-14.503-9.3,6.395-22.223c48.291-29.865,68.819-76.303-1.328-96.076    c-66.414-18.721-152.122-10.754-211.735,13.648C93.045,86.195,71.076,115.588,112.139,128.249L112.139,128.249z M456.769,232.159    c3.2,5.403-0.591,12.068-5.38,14.907c-12.61,7.471-19.178-15.068-11.591-19.563C444.59,224.665,453.568,226.758,456.769,232.159    L456.769,232.159z M405.216,123.916c8.741,0,14.035,9.271,14.035,17.022c0,20.404-31.652,12.278-31.652,0    C387.599,133.187,396.477,123.916,405.216,123.916L405.216,123.916z M84.276,124.448c5.887,0,9.452,6.243,9.452,11.463    c0,13.742-21.318,8.27-21.318,0C72.41,130.691,78.389,124.448,84.276,124.448z"/>
		<path style="fill-rule:evenodd;clip-rule:evenodd;fill:#324360;" d="M245.864,37.476c43.579,0,80.077,39.037,80.077,82.043    c0,64.139-60.059,59.095-60.059,108.2c-1.727,11.976-8.042,17.993-18.827,17.993c-11.499-2.563-17.279-8.043-17.279-16.444v-5.184    c0-65.783,59.7-58.831,59.7-106.532c0-24.568-21.67-43.613-45.579-43.613c-17.338,0-30.863,9.176-40.634,27.587l-4.708,23.058    c-5.243,6.732-10.784,10.129-16.623,10.129c-11.976-2.563-17.934-8.521-17.934-17.815c0-25.501,12.512-47.725,37.477-66.612    C216.729,41.765,231.506,37.476,245.864,37.476L245.864,37.476z M248.129,253.458c2.182,0,4.22,0.284,6.103,0.81    c9.98,2.78,15.643,12.305,15.773,21.899c0.087,6.334-2.255,13.198-7.097,17.859c-12.901,12.423-39.208,4.321-39.208-16.855    C223.7,262.696,233.921,253.458,248.129,253.458z"/>
		
		<g>
			<path style="fill-rule:evenodd;clip-rule:evenodd;fill:#324360;" d="M110.468,102.894c8.733,0,16.049,7.824,16.049,16.443     c0,12.855-12.037,11.844-12.037,21.685c-0.346,2.4-1.611,3.606-3.773,3.606c-2.304-0.514-3.462-1.612-3.462-3.296v-1.039     c0-13.184,11.964-11.791,11.964-21.351c0-4.924-4.343-8.741-9.134-8.741c-3.476,0-6.186,1.839-8.145,5.529l-0.943,4.621     c-1.051,1.349-2.161,2.03-3.331,2.03c-2.401-0.513-3.595-1.707-3.595-3.57c0-5.111,2.508-9.565,7.511-13.35     C104.629,103.754,107.591,102.894,110.468,102.894L110.468,102.894z M110.254,146.181h0.668c2.054,0,3.499,1.253,4.335,3.772     v1.195c-0.526,2.842-2.149,4.263-4.86,4.263c-2.914-0.633-4.371-2.126-4.371-4.478     C106.026,148.318,107.435,146.73,110.254,146.181z"/>
			<path style="fill-rule:evenodd;clip-rule:evenodd;fill:#324360;" d="M440.135,109.002c8.733,0,16.049,7.824,16.049,16.443     c0,12.854-12.036,11.843-12.036,21.685c-0.347,2.4-1.612,3.606-3.773,3.606c-2.305-0.514-3.462-1.611-3.462-3.296v-1.038     c0-13.184,11.964-11.791,11.964-21.351c0-4.923-4.343-8.741-9.134-8.741c-3.477,0-6.186,1.839-8.145,5.529l-0.944,4.621     c-1.051,1.349-2.162,2.03-3.331,2.03c-2.4-0.513-3.594-1.707-3.594-3.57c0-5.111,2.508-9.565,7.511-13.351     C434.296,109.862,437.258,109.002,440.135,109.002L440.135,109.002z M439.92,152.289h0.668c2.056,0,3.499,1.254,4.336,3.774     v1.194c-0.525,2.842-2.149,4.263-4.86,4.263c-2.913-0.633-4.37-2.126-4.37-4.478C435.693,154.426,437.102,152.838,439.92,152.289     z"/>
			<g>
				<path style="fill-rule:evenodd;clip-rule:evenodd;fill:#FFFFFF;" d="M207.749,162.519c8.734,0,16.049,7.824,16.049,16.443      c0,12.855-12.036,11.844-12.036,21.686c-0.347,2.4-1.612,3.606-3.773,3.606c-2.305-0.513-3.463-1.612-3.463-3.296v-1.039      c0-13.184,11.965-11.791,11.965-21.35c0-4.924-4.343-8.741-9.135-8.741c-3.475,0-6.185,1.838-8.145,5.529l-0.943,4.621      c-1.051,1.35-2.162,2.03-3.332,2.03c-2.4-0.514-3.594-1.707-3.594-3.571c0-5.11,2.508-9.565,7.511-13.351      C201.911,163.378,204.872,162.519,207.749,162.519L207.749,162.519z M207.535,205.806h0.668c2.055,0,3.499,1.253,4.335,3.773      v1.194c-0.526,2.842-2.149,4.263-4.86,4.263c-2.914-0.632-4.37-2.126-4.37-4.478      C203.308,207.943,204.717,206.355,207.535,205.806z"/>
				<path style="fill-rule:evenodd;clip-rule:evenodd;fill:#FFFFFF;" d="M87.86,233.342c5.644,0,10.372,5.056,10.372,10.627      c0,8.306-7.779,7.655-7.779,14.014c-0.224,1.552-1.042,2.331-2.439,2.331c-1.489-0.332-2.238-1.043-2.238-2.131v-0.671      c0-8.52,7.733-7.621,7.733-13.798c0-3.183-2.807-5.65-5.904-5.65c-2.245,0-3.998,1.188-5.263,3.574l-0.609,2.986      c-0.679,0.871-1.396,1.313-2.153,1.313c-1.552-0.333-2.323-1.104-2.323-2.308c0-3.304,1.621-6.182,4.854-8.628      C84.086,233.898,86.001,233.342,87.86,233.342L87.86,233.342z M87.721,261.317h0.433c1.327,0,2.261,0.81,2.801,2.438v0.771      c-0.339,1.838-1.389,2.755-3.141,2.755c-1.883-0.407-2.824-1.373-2.824-2.893C84.99,262.699,85.9,261.673,87.721,261.317z"/>
				<path style="fill-rule:evenodd;clip-rule:evenodd;fill:#FFFFFF;" d="M305.295,306.228c6.517,0,11.976,5.838,11.976,12.269      c0,9.592-8.982,8.838-8.982,16.181c-0.259,1.792-1.202,2.692-2.815,2.692c-1.72-0.384-2.584-1.204-2.584-2.46v-0.775      c0-9.837,8.928-8.798,8.928-15.931c0-3.675-3.24-6.523-6.816-6.523c-2.592,0-4.615,1.372-6.077,4.126l-0.703,3.448      c-0.785,1.007-1.612,1.514-2.486,1.514c-1.791-0.382-2.683-1.272-2.683-2.662c0-3.814,1.871-7.139,5.605-9.963      C300.936,306.869,303.146,306.228,305.295,306.228L305.295,306.228z M305.135,338.528h0.499c1.532,0,2.611,0.936,3.233,2.816      v0.891c-0.392,2.121-1.603,3.182-3.626,3.182c-2.175-0.473-3.262-1.586-3.262-3.341      C301.979,340.123,303.03,338.936,305.135,338.528z"/>
				<path style="fill-rule:evenodd;clip-rule:evenodd;fill:#FFFFFF;" d="M205.456,317.17c6.517,0,11.975,5.838,11.975,12.269      c0,9.592-8.982,8.838-8.982,16.181c-0.259,1.792-1.202,2.692-2.815,2.692c-1.72-0.384-2.585-1.204-2.585-2.46v-0.775      c0-9.837,8.928-8.798,8.928-15.931c0-3.675-3.241-6.523-6.816-6.523c-2.593,0-4.616,1.372-6.078,4.126l-0.703,3.448      c-0.785,1.008-1.613,1.515-2.486,1.515c-1.791-0.383-2.682-1.273-2.682-2.663c0-3.815,1.871-7.139,5.605-9.963      C201.098,317.81,203.307,317.17,205.456,317.17L205.456,317.17z M205.296,349.47h0.498c1.533,0,2.611,0.936,3.233,2.815v0.891      c-0.392,2.121-1.603,3.182-3.625,3.182c-2.176-0.473-3.263-1.586-3.263-3.341C202.14,351.065,203.191,349.878,205.296,349.47z"/>
			</g>
		</g>
		<g>
			<g>
				<path style="fill-rule:evenodd;clip-rule:evenodd;fill:#F3D104;" d="M359.867,198.758l-7.069,18.758l32.472-18.748h9.068      c11.727,0,21.32-9.595,21.32-21.321l0,0c0-11.726-9.594-21.321-21.32-21.321h-33.82c-11.728,0-21.321,9.595-21.321,21.321l0,0      C339.196,188.957,348.436,198.411,359.867,198.758z"/>
				<g>
					<path style="fill-rule:evenodd;clip-rule:evenodd;fill:#4F2E42;" d="M363.02,181.374c1.611,0,2.924-1.313,2.924-2.923       c0-1.61-1.313-2.923-2.924-2.923c-1.609,0-2.923,1.313-2.923,2.923C360.097,180.061,361.41,181.374,363.02,181.374z"/>
					
						<ellipse transform="matrix(1 -0.0058 0.0058 1 -1.0312 2.1694)" style="fill-rule:evenodd;clip-rule:evenodd;fill:#4F2E42;" cx="372.625" cy="178.45" rx="2.923" ry="2.923"/>
					<path style="fill-rule:evenodd;clip-rule:evenodd;fill:#4F2E42;" d="M382.23,181.374c1.609,0,2.923-1.313,2.923-2.923       c0-1.61-1.314-2.923-2.923-2.923c-1.61,0-2.924,1.313-2.924,2.923C379.307,180.061,380.62,181.374,382.23,181.374z"/>
					<path style="fill-rule:evenodd;clip-rule:evenodd;fill:#4F2E42;" d="M391.836,181.374c1.609,0,2.923-1.313,2.923-2.923       c0-1.61-1.314-2.923-2.923-2.923c-1.611,0-2.924,1.313-2.924,2.923C388.912,180.061,390.225,181.374,391.836,181.374z"/>
				</g>
			</g>
			<g>
				<path style="fill-rule:evenodd;clip-rule:evenodd;fill:#465B87;" d="M132.153,215.348l7.067,18.759l-32.472-18.748h-9.067      c-11.728,0-21.321-9.594-21.321-21.32l0,0c0-11.728,9.594-21.321,21.321-21.321h33.819c11.727,0,21.321,9.594,21.321,21.321l0,0      C152.822,205.546,143.581,215.001,132.153,215.348z"/>
				<g>
					<path style="fill-rule:evenodd;clip-rule:evenodd;fill:#FFFFFF;" d="M100.185,200.09c1.609,0,2.923-1.313,2.923-2.923       c0-1.61-1.313-2.924-2.923-2.924c-1.61,0-2.924,1.313-2.924,2.924C97.26,198.777,98.574,200.09,100.185,200.09z"/>
					<path style="fill-rule:evenodd;clip-rule:evenodd;fill:#FFFFFF;" d="M109.789,200.09c1.61,0,2.924-1.313,2.924-2.923       c0-1.61-1.313-2.924-2.924-2.924c-1.61,0-2.924,1.313-2.924,2.924C106.865,198.777,108.179,200.09,109.789,200.09z"/>
					<path style="fill-rule:evenodd;clip-rule:evenodd;fill:#FFFFFF;" d="M119.395,200.09c1.61,0,2.924-1.313,2.924-2.923       c0-1.61-1.313-2.924-2.924-2.924c-1.61,0-2.923,1.313-2.923,2.924C116.472,198.777,117.784,200.09,119.395,200.09z"/>
					<path style="fill-rule:evenodd;clip-rule:evenodd;fill:#FFFFFF;" d="M128.999,200.09c1.61,0,2.924-1.313,2.924-2.923       c0-1.61-1.314-2.924-2.924-2.924c-1.61,0-2.923,1.313-2.923,2.924C126.076,198.777,127.389,200.09,128.999,200.09z"/>
				</g>
			</g>
			<g>
				<path style="fill-rule:evenodd;clip-rule:evenodd;fill:#CF801C;" d="M370.836,59.14h30.529c7.245,0,13.172,5.927,13.172,13.171      v30.53c0,7.244-5.927,13.171-13.172,13.171h-10.331l-24.599,12.757l6.827-12.757h-2.427c-7.245,0-13.171-5.927-13.171-13.171      v-30.53C357.665,65.067,363.591,59.14,370.836,59.14z"/>
				<path style="fill-rule:evenodd;clip-rule:evenodd;fill:#FFFFFF;" d="M386.244,68.441c6.966,0,12.801,6.241,12.801,13.115      c0,10.252-9.601,9.446-9.601,17.296c-0.276,1.914-1.286,2.876-3.01,2.876c-1.837-0.41-2.762-1.286-2.762-2.629v-0.828      c0-10.516,9.543-9.405,9.543-17.03c0-3.927-3.465-6.971-7.286-6.971c-2.771,0-4.934,1.467-6.496,4.41l-0.752,3.685      c-0.838,1.076-1.724,1.62-2.657,1.62c-1.914-0.41-2.866-1.362-2.866-2.848c0-4.077,2-7.629,5.99-10.648      C381.587,69.127,383.949,68.441,386.244,68.441L386.244,68.441z M386.073,102.966h0.531c1.64,0,2.792,1,3.458,3.009v0.952      c-0.419,2.268-1.713,3.401-3.877,3.401c-2.322-0.505-3.484-1.695-3.484-3.572C382.701,104.67,383.825,103.404,386.073,102.966z"/>
			</g>
			<g>
				<g>
					<path style="fill-rule:evenodd;clip-rule:evenodd;fill:#CF801C;" d="M75.989,345.36c14.651,0,26.601-11.949,26.601-26.602       c0-14.652-11.95-26.602-26.601-26.602c-14.652,0-26.602,11.95-26.602,26.602C49.387,333.411,61.337,345.36,75.989,345.36z"/>
					<path style="fill-rule:evenodd;clip-rule:evenodd;fill:#FFFFFF;" d="M76.108,301.142c5.859,0,10.768,5.249,10.768,11.032       c0,8.623-8.075,7.944-8.075,14.548c-0.233,1.61-1.082,2.42-2.532,2.42c-1.546-0.345-2.323-1.082-2.323-2.211v-0.698       c0-8.844,8.027-7.908,8.027-14.323c0-3.303-2.914-5.865-6.129-5.865c-2.331,0-4.15,1.234-5.464,3.71l-0.632,3.101       c-0.705,0.904-1.45,1.361-2.236,1.361c-1.609-0.344-2.411-1.145-2.411-2.395c0-3.429,1.682-6.417,5.039-8.958       C72.191,301.719,74.178,301.142,76.108,301.142L76.108,301.142z M75.964,330.182h0.448c1.378,0,2.348,0.843,2.909,2.531v0.802       c-0.353,1.907-1.442,2.86-3.26,2.86c-1.955-0.423-2.933-1.427-2.933-3.004C73.128,331.616,74.074,330.551,75.964,330.182z"/>
				</g>
				<polygon style="fill-rule:evenodd;clip-rule:evenodd;fill:#CF801C;" points="92.637,320.776 110.974,320.776 91.839,340.176       92.637,333.002     "/>
			</g>
		</g>
		<g>
			<g>
				<path style="fill-rule:evenodd;clip-rule:evenodd;fill:#4F2E42;" d="M164.748,231.084c0.898,3.388-2.699,9.966-2.699,9.566      c0-0.398-2.772-10.032-2.772-10.032L164.748,231.084z"/>
				<path style="fill-rule:evenodd;clip-rule:evenodd;fill:#D98C80;" d="M201.352,269.014l2.893-2.219c0,0,0.927-3.905,1.265-4.597      c0.338-0.689,1.904-3.124,1.904-3.124s1.948-1.767,1.747-0.379c-0.2,1.389-0.186,4.214-0.186,4.214      c9.375-5.772,15.87-2.555,0.26,8.837c-0.411,0.587-0.986,1.22-1.745,1.897c-6.24,5.571-21.126,20.359-24.2,19.938      c-3.834-0.522-31.205-14.731-37.742-30.507c0.522-2.093,8.982-0.927,16.304,2.561c7.322,3.485,20.87,13.295,20.87,13.295      S194.273,272.474,201.352,269.014z"/>
				<path style="fill-rule:evenodd;clip-rule:evenodd;fill:#748B4B;" d="M169.863,290.138c-1.995-1.593-4.197-3.412-6.288-5.271      c-0.134-0.119-0.268-0.239-0.402-0.359c-3.095-2.781-5.897-5.62-7.347-7.891c-2.576-4.034-1.817-8.79-0.348-12.17      c1.021-2.347,2.383-4.031,3.208-4.351c1.134,0.314,2.273,0.725,3.411,1.221c7.271,3.172,14.505,9.818,20.21,16.314      c-0.608,0.533-1.196,1.055-1.764,1.563c-3.029,2.726-5.461,5.119-7.415,7.206C171.843,287.775,170.766,289.019,169.863,290.138z      "/>
				<path style="fill-rule:evenodd;clip-rule:evenodd;fill:#D18074;" d="M160.416,414.881c0.119,11.972-0.08,18.616-0.08,18.616      s-0.892,2.82,4.706,4.563c5.599,1.743,2.827-4.66,2.827-4.66C168.029,429.597,167.429,410.551,160.416,414.881z"/>
				<path style="fill-rule:evenodd;clip-rule:evenodd;fill:#D18074;" d="M131.449,414.881c0.12,11.972-0.08,18.616-0.08,18.616      s-0.892,2.82,4.706,4.563c5.599,1.743,2.828-4.66,2.828-4.66C139.062,429.597,138.461,410.551,131.449,414.881z"/>
				<path style="fill-rule:evenodd;clip-rule:evenodd;fill:#4F2E42;" d="M135.734,329.554l-1.861,51.97l-5.08,47.963l12.241,0.39      l13.958-79.591l5.866,35.3l-2.284,44.291l10.749-0.157l6.494-45.656l-0.895-56.14      C174.921,327.923,146.482,324.428,135.734,329.554z"/>
				<path style="fill-rule:evenodd;clip-rule:evenodd;fill:#748B4B;" d="M134.613,298.545c0.312,9.311-2.095,36.324-1.908,36.471      c9.387,7.401,32.793,7.739,42.869-0.534c0.058-0.046-3.063-62.973-13.67-72.727c-3.079-2.831-8.138-4.131-10.951-4.28      c-2.053-0.108-12.63,1.757-15.038,2.852c-8.487,3.861-9.463,13.548-9.224,13.741l7.712,10.672l0.298,0.615      C134.486,289.249,134.449,293.626,134.613,298.545z"/>
				<path style="fill-rule:evenodd;clip-rule:evenodd;fill:#D18074;" d="M146.331,244.915c0.784,13.436,0.784,13.436,0.784,13.436      s-0.56,6.27,5.038,8.174c5.598,1.901,3.359-6.831,3.359-6.831l-0.224-6.269C155.288,253.425,151.482,241.444,146.331,244.915z"/>
				<path style="fill-rule:evenodd;clip-rule:evenodd;fill:#D98C80;" d="M146.387,241.221c-1.794-1.899-3.695,1.678-1.694,3.083      c0.79,0.556,1.862,0.556,1.862,0.556s0.337,4.311,5.487,7.222c5.15,2.911,10.076,0.895,10.3-6.941      c0.225-7.838,0.784-12.652,0.784-12.652l-13.099-0.783C150.026,231.704,149.354,237.75,146.387,241.221z"/>
				<path style="fill-rule:evenodd;clip-rule:evenodd;fill:#D98C80;" d="M127.817,283.609c-5.7,4.529-12.598,12.156-12.598,12.156      l17.256,22.488c0,0,3.904,0.928,4.595,1.266c0.691,0.339,3.124,1.904,3.124,1.904s1.767,1.946,0.379,1.747      c-1.388-0.2-4.213-0.185-4.213-0.185c5.885,9.559,2.426,16.127-9.517-0.683c0,0-16.087-18.884-17.231-23.428      c-1.144-4.543,7.983-18.839,7.983-18.839L127.817,283.609z"/>
				<path style="fill-rule:evenodd;clip-rule:evenodd;fill:#4F2E42;" d="M144.155,241.01c0,0,0.942-0.68,1.726,0.366      c0.784,1.045,0.784,1.098,0.784,1.098s3.347-4.288,3.557-7.479c0.209-3.19,0.209-3.295,0.209-3.295s14.121,4.236,16.945-1.727      c3.938-8.313-19.292-14.935-23.231-3.726c-0.973-0.674-5.537-0.825-1.573,1.333c-0.312-0.021-1.76,0.601-1.849,1.108      C140.243,231.43,143.688,239.999,144.155,241.01z"/>
				<path style="fill-rule:evenodd;clip-rule:evenodd;fill:#D98C80;" d="M134.069,262.48c2.092,0.522,10.493,5.795,7.007,13.115      c-3.486,7.322-22.864,19.274-22.864,19.274s12.922,22.163,12.573,23.906c-0.741,3.704-1.496,6.827-5.159,2.724      c-5.571-6.241-20.358-21.128-19.938-24.2C106.21,293.465,118.291,269.018,134.069,262.48z"/>
				<path style="fill-rule:evenodd;clip-rule:evenodd;fill:#4F2E42;" d="M159.718,432.565c0,7.247,0,7.247,0,7.247h20.755      l-13.288-7.247H159.718z"/>
				<path style="fill-rule:evenodd;clip-rule:evenodd;fill:#4F2E42;" d="M131.234,432.565c0,7.247,0,7.247,0,7.247h20.756      l-13.288-7.247H131.234z"/>
				<path style="fill-rule:evenodd;clip-rule:evenodd;fill:#748B4B;" d="M128.818,290.751c1.783-1.825,3.742-3.904,5.587-6.01      c0.119-0.135,0.238-0.271,0.355-0.407c2.727-3.14,5.156-6.305,6.315-8.738c2.295-4.82-0.027-19.203-8.115-14.404      c-6.823,4.047-13.179,11.534-18.038,18.686c0.671,0.454,1.318,0.898,1.944,1.335c3.344,2.329,6.053,4.401,8.25,6.232      C126.56,288.65,127.784,289.751,128.818,290.751z"/>
				<path style="fill-rule:evenodd;clip-rule:evenodd;fill:#4F2E42;" d="M147.251,238.957c0.844,5.548,3.098,10.125,6.064,11.59      c4.047,1.998,8.535-0.168,8.885-5.61c0.279-4.34,1.242,1.48-0.419,5.612c-0.827,2.057-2.126,3.347-4.83,3.457      c-4.01,0.163-6.189-0.615-8.013-2.785c-1.877-2.234-2.778-5.809-3.082-11.2C145.258,229.39,147.251,238.957,147.251,238.957z"/>
				<path style="fill-rule:evenodd;clip-rule:evenodd;fill:#4F2E42;" d="M153.064,251.448c-1.563-6.802,2.064-8.241,4.588-8.095      c3.746,0.218,4.569,3.516,2.92,7.962c-0.421,1.135-1.008,0.95-0.949-0.823c0.069-2.029-0.618-3.595-1.58-3.805      c-1.421-0.311-3.05,0.42-3.226,2.16C154.536,251.632,153.788,252.597,153.064,251.448z"/>
			</g>
			<g>
				
				<g>
					<path style="fill-rule:evenodd;clip-rule:evenodd;fill:#D98C80;" d="M372.788,312.982c1.368,3.301,3.103,6.592,4.215,8.571       c0.116,0.208-0.921-0.632-1.453-0.681c-2.066-0.189,3.582,5.673,4.16,3.072c0.222-0.996,2.325-10.963,2.103-11.848       c-0.223-0.886-4.541-3.877-4.541-3.877L372.788,312.982z"/>
					<path style="fill-rule:evenodd;clip-rule:evenodd;fill:#793323;" d="M412.089,223.691c3.647,2.808,2.661,5.912,0.297,12.121       c-2.365,6.207-4.73,10.248-4.73,10.248s-1.873-16.949-1.28-17.836C406.965,227.336,409.429,222.804,412.089,223.691z"/>
					<path style="fill-rule:evenodd;clip-rule:evenodd;fill:#F1CC1F;" d="M397.409,253.148c-12.021,9.855-20.102,27-20.102,27       l9.657,10.643C386.965,290.79,397.606,263.985,397.409,253.148z"/>
					<path style="fill-rule:evenodd;clip-rule:evenodd;fill:#D98C80;" d="M416.032,424.539c0.844,10.347,0.844,10.347,0.844,10.347       h5.518l0.881-10.741L416.032,424.539z"/>
					<path style="fill-rule:evenodd;clip-rule:evenodd;fill:#D98C80;" d="M394.052,424.539c0.259,10.347,0.259,10.347,0.259,10.347       h-5.518l-2.025-10.741L394.052,424.539z"/>
					<path style="fill-rule:evenodd;clip-rule:evenodd;fill:#324360;" d="M394.9,433.308c0,6.504,0,6.504,0,6.504h-18.622       l11.923-6.504H394.9z"/>
					<path style="fill-rule:evenodd;clip-rule:evenodd;fill:#324360;" d="M422.886,433.308c0,6.504,0,6.504,0,6.504h-18.622       l11.923-6.504H422.886z"/>
					<path style="fill-rule:evenodd;clip-rule:evenodd;fill:#324360;" d="M418.972,320.523l-0.161,11.893l0.542,46.815l6.036,49.393       l-12.208-0.71l-14.635-78.516l-3.826,34.655l2.185,43.86l-10.28,0.945l-6.211-46.352l0.856-56.996       c0,0,7.593-12.206,15.825-12.427C405.101,312.869,413.903,317.958,418.972,320.523z"/>
					<path style="fill-rule:evenodd;clip-rule:evenodd;fill:#EBEBEB;" d="M415.605,287.889c-0.329,9.833,1.273,33.127,1.076,33.283       c-5.852,4.612-12.927-4.884-20.658-5.798c-5.368-0.636-11.514,8.828-15.874,5.247c-0.242-0.198,3.833-27.007,3.833-32.238       c0-27.165,12.174-36.796,20.346-37.227C414.592,250.615,416.756,253.567,415.605,287.889z"/>
					<path style="fill-rule:evenodd;clip-rule:evenodd;fill:#D18074;" d="M409.209,237.891c-0.827,14.189-0.827,14.189-0.827,14.189       c0.713,8.001-9.953,13.157-9.375,4.376c0.209-3.19,0.622-6.18,0.743-9.579C399.75,246.877,403.769,234.225,409.209,237.891z"/>
					<path style="fill-rule:evenodd;clip-rule:evenodd;fill:#D98C80;" d="M409.151,233.99c1.895-2.006,3.9,1.77,1.789,3.255       c-0.836,0.586-1.967,0.588-1.967,0.588s-0.355,4.552-5.795,7.626c-5.44,3.074-10.642,0.946-10.879-7.332       c-0.237-8.277-0.829-13.361-0.829-13.361l13.836-0.828C405.307,223.939,406.016,230.324,409.151,233.99z"/>
					<path style="fill-rule:evenodd;clip-rule:evenodd;fill:#793323;" d="M409.02,237.141c-1.111-1.811-3.054-6.503-3.666-9.086       c-0.246-1.04-1.784-0.565-2.898-1c-1.349-0.525-2.309-1.84-2.6-1.788c-2.179,0.392-5.883,1.764-8.707,1.073       c-12.803-3.132,10.441-14.201,16.572-4.629c0.347,0.541,1.738-0.805,1.623-0.259c1.214-0.833,2.237-1.161,1.408-0.249       c-0.83,0.912,0.055,0.026,0.055,0.026s2.662,0.147,2.514,1.232c-0.054,0.386-0.857,0.572-1.781,0.593       c1.005,0.714,2.088,1.82,2.088,3.273c0,1.132-2.762,3.139-3.717,5.196C409.038,233.407,409.613,238.108,409.02,237.141z"/>
					<path style="fill-rule:evenodd;clip-rule:evenodd;fill:#D98C80;" d="M431.496,289.586l1.943-4.459       c4.155-4.88,12.419-13.135,15.953-18.479c0,0-0.342-3.429-0.261-4.085c0.081-0.655,1.004-4.62,1.004-4.62       c1.568-2.857,1.162,3.627,3.115,3.009c2.177-0.69,7.562-2.142,10.235-2.004c6.35,0.323-5.292,6.434-5.945,6.926       c-8.165,6.146-15.534,28.397-22.168,29.595C431.01,296.258,432.535,293.282,431.496,289.586z"/>
					<path style="fill-rule:evenodd;clip-rule:evenodd;fill:#F1CC1F;" d="M410.422,253.148c12.022,9.855,20.102,27,20.102,27       l-9.655,10.643C420.868,290.79,410.225,263.985,410.422,253.148z"/>
					<path style="fill-rule:evenodd;clip-rule:evenodd;fill:#995014;" d="M378.612,308.821c-0.971-3.212-3.443-11.574-2.941-12.853       c0.505-1.277,8.315-9.21,8.315-9.21l-4.865,38.851l9.865,9.053l7.298-14.487l1.281-32.672       c0.159-3.716,2.027-36.724,1.804-36.668c-8.184,2.047-31.868,31.003-36.151,41.668c-3.287,8.185,1.828,10.635,10.038,23.096       C374.997,318.235,379.583,312.033,378.612,308.821z"/>
					<path style="fill-rule:evenodd;clip-rule:evenodd;fill:#995014;" d="M408.422,249.852c0.619,3.618-11.389,33.112-11.851,46.134       c-0.52,14.688-0.078,12.558-0.225,22.142c-0.111,7.318,5.438,16.567,5.438,16.567l18.001-11.959l-1.651-35.37       c0,0,9.228,14.969,13.564,16.108c4.335,1.141,22.389-26.959,22.389-26.959l-6.161-9.522l-13.811,15.529       C434.113,282.522,423.482,256.24,408.422,249.852z"/>
					<path style="fill-rule:evenodd;clip-rule:evenodd;fill:#793323;" d="M414.086,230.37c1.235-3.517,1.851-7.107-0.331-9.216       c-2.145-2.073-3.205-0.86-3.707-2.372c-2.638-7.944-17.47-4.538-20.218-1.363c-3.296,3.806,14.559,7.247,15.414,7.647       C406.1,225.464,411.006,235.276,414.086,230.37z"/>
					<g>
						<g>
							<polygon style="fill:#823F0D;" points="396.656,295.397 389.102,266.781 395.108,261.143 390.549,260.168 396.337,251.878          396.758,252.173 391.412,259.828 396.174,260.847 389.676,266.945 396.855,294.139 413.446,268.323 407.986,261.803          413.02,259.103 410.145,251.674 410.624,251.489 413.661,259.342 408.783,261.957 414.081,268.283 413.979,268.441                 "/>
						</g>
						<g>
							<path style="fill:#823F0D;" d="M396.357,320.681l-0.513-0.002c0.001-0.139,0.065-14.047,0.897-25.936l0.511,0.036         C396.423,306.651,396.358,320.542,396.357,320.681z"/>
						</g>
					</g>
				</g>
			</g>
		</g>
	</g>
</g>
</svg>