<svg width="100%" height="100%" id="svg" viewBox="0 0 1440 590" xmlns="http://www.w3.org/2000/svg" class="transition duration-300 ease-in-out delay-150"><path d="M 0,600 L 0,150 C 107.42583732057417,137.19617224880383 214.85167464114835,124.39234449760767 317,145 C 419.14832535885165,165.60765550239233 516.0191387559809,219.6267942583732 613,222 C 709.9808612440191,224.3732057416268 807.0717703349283,175.10047846889952 887,137 C 966.9282296650717,98.89952153110048 1029.6937799043062,71.97129186602871 1119,76 C 1208.3062200956938,80.02870813397129 1324.153110047847,115.01435406698565 1440,150 L 1440,600 L 0,600 Z" stroke="none" stroke-width="0" fill="#00d084" fill-opacity="0.53" class="transition-all duration-300 ease-in-out delay-150 path-0"></path><path d="M 0,600 L 0,350 C 98.58373205741626,342.88038277511964 197.1674641148325,335.7607655502392 289,339 C 380.8325358851675,342.2392344497608 465.9138755980862,355.8373205741627 553,349 C 640.0861244019138,342.1626794258373 729.1770334928229,314.88995215311 822,319 C 914.8229665071771,323.11004784689 1011.377990430622,358.60287081339715 1115,369 C 1218.622009569378,379.39712918660285 1329.311004784689,364.6985645933014 1440,350 L 1440,600 L 0,600 Z" stroke="none" stroke-width="0" fill="#00d084" fill-opacity="1" class="transition-all duration-300 ease-in-out delay-150 path-1"></path></svg>